<svg width="18" height="18" viewBox="0 0 18 18" fill="none" xmlns="http://www.w3.org/2000/svg">
<path fill-rule="evenodd" clip-rule="evenodd" d="M8.98486 5.41324e-05C8.53089 0.00623275 8.16699 0.379487 8.17546 0.833399V11.9335L4.67126 8.42929C4.58553 8.33996 4.48063 8.27128 4.36448 8.22841C4.24833 8.18554 4.12396 8.16962 4.00075 8.18185C3.84568 8.19725 3.69825 8.25665 3.57581 8.35306C3.45338 8.44947 3.36106 8.57887 3.30972 8.726C3.25839 8.87313 3.25017 9.03188 3.28605 9.18352C3.32193 9.33517 3.40041 9.4734 3.51224 9.58193L8.41812 14.4878C8.57128 14.6401 8.77847 14.7255 8.99444 14.7255C9.2104 14.7255 9.41759 14.6401 9.57076 14.4878L14.475 9.58193C14.5606 9.50864 14.6301 9.41846 14.6791 9.31704C14.7282 9.21563 14.7557 9.10517 14.7601 8.9926C14.7644 8.88003 14.7455 8.76777 14.7044 8.66288C14.6633 8.55799 14.6009 8.46273 14.5213 8.38307C14.4416 8.30341 14.3463 8.24108 14.2415 8.19998C14.1366 8.15888 14.0243 8.13991 13.9117 8.14425C13.7992 8.14859 13.6887 8.17615 13.5873 8.2252C13.4859 8.27425 13.3957 8.34374 13.3224 8.42929L9.81182 11.9415V0.833399C9.82041 0.372381 9.44593 -0.00519771 8.98486 5.41324e-05ZM0.809454 13.0813C0.70198 13.0824 0.595769 13.1046 0.496898 13.1468C0.398027 13.1889 0.308439 13.2502 0.23326 13.327C0.15808 13.4038 0.0987858 13.4947 0.0587698 13.5944C0.0187538 13.6942 -0.00119819 13.8008 5.56301e-05 13.9083V17.1794C-0.000355676 17.2873 0.0205883 17.3942 0.0616803 17.4939C0.102772 17.5937 0.1632 17.6843 0.239479 17.7606C0.315758 17.8368 0.406381 17.8973 0.506123 17.9384C0.605866 17.9795 0.712755 18.0004 0.820629 18H17.1667C17.2745 18.0004 17.3814 17.9795 17.4812 17.9384C17.5809 17.8973 17.6715 17.8368 17.7478 17.7606C17.8241 17.6843 17.8845 17.5937 17.9256 17.4939C17.9667 17.3942 17.9876 17.2873 17.9872 17.1794V13.9083C17.9825 13.6947 17.8943 13.4914 17.7415 13.3419C17.5887 13.1925 17.3835 13.1089 17.1698 13.1089C16.9561 13.1089 16.7509 13.1925 16.5982 13.3419C16.4454 13.4914 16.3572 13.6947 16.3525 13.9083V16.3652H1.63482V13.9083C1.63609 13.7995 1.61562 13.6915 1.57461 13.5907C1.5336 13.4899 1.47288 13.3983 1.396 13.3213C1.31913 13.2443 1.22765 13.1834 1.12693 13.1422C1.02621 13.101 0.918272 13.0803 0.809454 13.0813Z" fill="#008826"/>
</svg>
