<svg width="76" height="90" viewBox="0 0 76 90" fill="none" xmlns="http://www.w3.org/2000/svg">
<path d="M64.6991 69.7278C65.3384 69.7278 65.9777 69.7556 66.617 69.6907C67.9234 69.561 69.1556 69.2182 70.3138 68.5789C72.4448 67.4022 74.0755 65.3083 74.6962 62.9549C75.1873 61.0648 74.9927 58.9338 74.9927 56.9974C74.9927 53.9862 74.9927 50.9842 74.9927 47.973C74.9927 45.9254 74.9927 43.8778 74.9927 41.8302C74.9927 37.6052 72.0835 33.6675 67.8585 32.7966C66.9227 32.602 65.9962 32.5835 65.0419 32.5835C64.032 32.5835 63.0035 32.6761 62.04 32.9819C59.7236 33.7231 57.6668 35.3816 56.6013 37.5867C55.9249 38.9765 55.6284 40.4311 55.6284 41.9599C55.6284 42.7752 55.6284 43.5998 55.6284 44.4152C55.6284 47.343 55.6284 50.2801 55.6284 53.2079C55.6284 55.5242 55.6284 57.8312 55.6284 60.1475C55.6284 61.352 55.7396 62.575 56.1751 63.7054C57.046 65.9661 58.7137 67.9118 60.9652 68.8939C62.1511 69.422 63.3834 69.7185 64.6991 69.7278C65.6719 69.737 66.5984 68.8661 66.5521 67.8747C66.5058 66.8648 65.7368 66.0309 64.6991 66.0217C64.4396 66.0217 64.1895 66.0032 63.9301 65.9846C63.4853 65.9476 64.3563 66.0773 63.9208 65.9754C63.8003 65.9476 63.6799 65.929 63.5502 65.9012C63.3093 65.8456 63.0684 65.7715 62.8368 65.6974C62.7904 65.6789 62.5125 65.614 62.494 65.5677C62.7441 65.6789 62.7812 65.6881 62.5959 65.6047C62.5217 65.5677 62.4476 65.5306 62.3735 65.4936C62.1604 65.3824 61.9473 65.2619 61.7435 65.1322C61.6415 65.0674 61.5396 64.9932 61.447 64.9284C61.0949 64.6968 61.7527 65.1971 61.4377 64.9284C61.0671 64.6134 60.7336 64.2706 60.4185 63.9092C60.1406 63.5942 60.6502 64.252 60.4185 63.8999C60.3537 63.798 60.2796 63.7054 60.2147 63.6035C60.085 63.3996 59.9645 63.1865 59.8534 62.9734C59.8348 62.9364 59.6773 62.6769 59.6959 62.6399C59.7236 62.714 59.7607 62.7881 59.7885 62.853C59.7607 62.7789 59.7329 62.7047 59.6959 62.6213C59.5939 62.3527 59.5105 62.0747 59.4457 61.7875C59.4179 61.667 59.3994 61.5466 59.3716 61.4169C59.2789 60.9999 59.3994 61.7504 59.3716 61.4725C59.353 61.2408 59.3252 61.0092 59.3252 60.7683C59.3252 60.6942 59.3252 60.6293 59.3252 60.5552C59.3252 58.7392 59.3252 56.9232 59.3252 55.1073C59.3252 50.6229 59.2882 46.1478 59.3252 41.6634C59.3252 41.5337 59.3252 41.404 59.3345 41.2743C59.3438 41.1724 59.353 41.0612 59.3623 40.9593C59.3994 40.5701 59.3252 40.9963 59.353 41.0148C59.2882 40.9778 59.6588 39.5231 59.7885 39.4676C59.7607 39.5417 59.7236 39.6158 59.6959 39.6807C59.7329 39.6065 59.7607 39.5324 59.7978 39.4583C59.8534 39.3471 59.9089 39.2359 59.9645 39.134C60.085 38.9209 60.2054 38.7171 60.3444 38.5132C60.3722 38.4762 60.3907 38.4484 60.4185 38.4113C60.539 38.2538 60.5112 38.2816 60.3444 38.4947C60.3444 38.4391 60.539 38.2631 60.576 38.2168C60.7521 38.0222 60.9281 37.8369 61.1227 37.6516C61.1968 37.5867 61.2709 37.5126 61.3451 37.4477C61.3729 37.4199 61.4099 37.3921 61.4377 37.3736C61.5952 37.2532 61.5674 37.2717 61.3451 37.4385C61.3451 37.3458 61.8732 37.0864 61.9473 37.0401C62.1604 36.9196 62.3735 36.8084 62.5959 36.6973C62.9757 36.5027 62.1975 36.8362 62.6051 36.6973C62.7626 36.6417 62.9109 36.5861 63.0684 36.5397C63.3093 36.4656 63.5502 36.41 63.7911 36.3544C63.8281 36.3452 63.8745 36.3359 63.9115 36.3359C64.1154 36.2989 64.0783 36.3081 63.7911 36.3452C63.8467 36.2988 64.0968 36.3174 64.171 36.3081C64.486 36.2896 64.801 36.2896 65.1067 36.2896C65.3662 36.2896 65.6256 36.2896 65.8943 36.2896C66.1537 36.2896 66.4039 36.3081 66.6633 36.3266C67.108 36.3637 66.2371 36.234 66.6726 36.3359C66.8393 36.373 66.9968 36.4008 67.1636 36.4378C67.4045 36.5027 67.6361 36.5675 67.8678 36.6602C67.9048 36.6695 68.0901 36.7251 68.0994 36.7528C68.0253 36.7251 67.9512 36.688 67.8863 36.6602C67.9604 36.6973 68.0346 36.725 68.1087 36.7621C68.331 36.864 68.5441 36.9845 68.748 37.1142C68.8499 37.179 68.9518 37.2439 69.0537 37.3088C69.1186 37.3551 69.1834 37.4014 69.2483 37.4477C69.0352 37.281 69.0074 37.2532 69.1556 37.3829C69.5263 37.7072 69.8598 38.0407 70.1748 38.4021C70.4528 38.7171 69.9432 38.0592 70.1748 38.4113C70.2397 38.5132 70.3138 38.6059 70.3787 38.7078C70.5084 38.9116 70.6288 39.1247 70.74 39.3378C70.7585 39.3749 70.916 39.6343 70.8975 39.6714C70.8697 39.5973 70.8326 39.5231 70.8049 39.4583C70.8326 39.5324 70.8604 39.6065 70.8975 39.6899C70.9809 39.9216 71.055 40.1624 71.1199 40.3941C71.1477 40.5145 71.1755 40.635 71.2033 40.7554C71.2125 40.7925 71.2218 40.8388 71.2218 40.8759C71.2588 41.0797 71.2496 41.0426 71.2125 40.7554C71.333 40.8944 71.2681 41.4688 71.2681 41.6449C71.3052 46.0459 71.2681 50.4376 71.2681 54.8386C71.2681 56.7287 71.2681 58.6095 71.2681 60.4996C71.2681 60.5367 71.2681 60.583 71.2681 60.6201C71.2681 60.7127 71.2681 60.7961 71.2681 60.8888C71.2681 61.0185 71.2588 61.1482 71.2403 61.2686C71.2311 61.352 71.2218 61.4354 71.2125 61.5188C71.2496 61.2316 71.2588 61.1945 71.2218 61.3983C71.1662 61.6392 71.1199 61.8894 71.055 62.1303C71.018 62.2415 70.916 62.7789 70.8141 62.8252C70.8419 62.7511 70.879 62.6769 70.9068 62.6121C70.8697 62.6862 70.8419 62.7603 70.8049 62.8344C70.7678 62.9086 70.7307 62.9827 70.6937 63.0475C70.564 63.2977 70.4157 63.5386 70.2489 63.7702C70.2211 63.8073 70.2026 63.8351 70.1748 63.8722C70.0544 64.0297 70.0822 64.0019 70.2489 63.7888C70.2489 63.8444 70.0544 64.0204 70.0173 64.0667C69.8598 64.252 69.693 64.4188 69.517 64.5856C69.4243 64.669 69.3409 64.7523 69.2483 64.8265C69.2205 64.8543 69.1834 64.8821 69.1556 64.9006C68.9981 65.021 69.0259 65.0025 69.2483 64.8357C69.2483 64.9376 68.6368 65.2434 68.5349 65.299C68.4515 65.3453 67.9512 65.6696 67.8863 65.6325C67.9048 65.6418 68.2569 65.4936 67.9882 65.5862C67.8678 65.6233 67.7566 65.6696 67.6361 65.7067C67.4045 65.7808 67.1636 65.8456 66.9135 65.9012C66.8857 65.9105 66.5521 65.9846 66.5428 65.9661C66.8301 65.929 66.8671 65.929 66.6633 65.9476C66.5799 65.9568 66.4965 65.9661 66.4131 65.9661C65.8387 66.0032 65.2642 65.9846 64.6898 65.9846C63.717 65.9846 62.7904 66.837 62.8368 67.8377C62.8831 68.8754 63.6521 69.7278 64.6991 69.7278Z" fill="#3298DC"/>
<path d="M9.07065 69.7278C9.70995 69.7278 10.3493 69.7556 10.9886 69.6907C12.295 69.561 13.5272 69.2182 14.6854 68.5789C16.8164 67.4022 18.4471 65.3083 19.0678 62.9549C19.5589 61.0648 19.3643 58.9338 19.3643 56.9974C19.3643 53.9862 19.3643 50.9842 19.3643 47.973C19.3643 45.9254 19.3643 43.8778 19.3643 41.8302C19.3643 37.6052 16.455 33.6675 12.2301 32.7966C11.2943 32.602 10.3678 32.5835 9.41347 32.5835C8.40356 32.5835 7.37512 32.6761 6.41153 32.9819C4.09523 33.7231 2.03835 35.3816 0.972848 37.5867C0.296487 38.9765 0 40.4311 0 41.9599C0 42.7752 0 43.5998 0 44.4152C0 47.343 0 50.2801 0 53.2079C0 55.5242 0 57.8312 0 60.1475C0 61.352 0.111183 62.575 0.546648 63.7054C1.41758 65.9661 3.08532 67.9118 5.33677 68.8939C6.52272 69.422 7.75499 69.7185 9.07065 69.7278C10.0435 69.737 10.97 68.8661 10.9237 67.8747C10.8774 66.8648 10.1084 66.0309 9.07065 66.0217C8.81123 66.0217 8.56107 66.0032 8.30164 65.9846C7.85691 65.9476 8.72784 66.0773 8.29237 65.9754C8.17193 65.9476 8.05148 65.929 7.92176 65.9012C7.68087 65.8456 7.43997 65.7715 7.20834 65.6974C7.16202 65.6789 6.88406 65.614 6.86553 65.5677C7.11569 65.6789 7.15275 65.6881 6.96745 65.6047C6.89333 65.5677 6.8192 65.5306 6.74508 65.4936C6.53198 65.3824 6.31888 65.2619 6.11505 65.1322C6.01313 65.0674 5.91121 64.9932 5.81856 64.9284C5.46648 64.6968 6.12431 65.1971 5.80929 64.9284C5.43869 64.6134 5.10514 64.2706 4.79012 63.9092C4.51216 63.5942 5.02175 64.252 4.79012 63.8999C4.72526 63.798 4.65114 63.7054 4.58628 63.6035C4.45657 63.3996 4.33612 63.1865 4.22494 62.9734C4.20641 62.9364 4.0489 62.6769 4.06743 62.6399C4.09523 62.714 4.13229 62.7881 4.16009 62.853C4.13229 62.7789 4.10449 62.7047 4.06743 62.6213C3.96552 62.3527 3.88213 62.0747 3.81727 61.7875C3.78948 61.667 3.77095 61.5466 3.74315 61.4169C3.6505 60.9999 3.77095 61.7504 3.74315 61.4725C3.72462 61.2408 3.69682 61.0092 3.69682 60.7683C3.69682 60.6942 3.69682 60.6293 3.69682 60.5552C3.69682 58.7392 3.69682 56.9232 3.69682 55.1073C3.69682 50.6229 3.65976 46.1478 3.69682 41.6634C3.69682 41.5337 3.69682 41.404 3.70609 41.2743C3.71535 41.1724 3.72462 41.0612 3.73388 40.9593C3.77095 40.5701 3.69682 40.9963 3.72462 41.0148C3.65976 40.9778 4.03037 39.5231 4.16009 39.4676C4.13229 39.5417 4.09523 39.6158 4.06743 39.6807C4.10449 39.6065 4.13229 39.5324 4.16935 39.4583C4.22494 39.3471 4.28053 39.2359 4.33612 39.134C4.45657 38.9209 4.57702 38.7171 4.716 38.5132C4.74379 38.4762 4.76232 38.4484 4.79012 38.4113C4.91057 38.2538 4.88277 38.2816 4.716 38.4947C4.716 38.4391 4.91057 38.2631 4.94763 38.2168C5.12367 38.0222 5.29971 37.8369 5.49428 37.6516C5.5684 37.5867 5.64252 37.5126 5.71664 37.4477C5.74444 37.4199 5.7815 37.3921 5.80929 37.3736C5.9668 37.2532 5.93901 37.2717 5.71664 37.4385C5.71664 37.3458 6.24476 37.0864 6.31888 37.0401C6.53198 36.9196 6.74508 36.8084 6.96745 36.6973C7.34732 36.5027 6.56904 36.8362 6.97671 36.6973C7.13422 36.6417 7.28246 36.5861 7.43997 36.5397C7.68087 36.4656 7.92176 36.41 8.16266 36.3544C8.19972 36.3452 8.24605 36.3359 8.28311 36.3359C8.48694 36.2989 8.44988 36.3081 8.16266 36.3452C8.21825 36.2988 8.46841 36.3174 8.54254 36.3081C8.85755 36.2896 9.17257 36.2896 9.47832 36.2896C9.73775 36.2896 9.99717 36.2896 10.2659 36.2896C10.5253 36.2896 10.7755 36.3081 11.0349 36.3266C11.4796 36.3637 10.6087 36.234 11.0441 36.3359C11.2109 36.373 11.3684 36.4008 11.5352 36.4378C11.7761 36.5027 12.0077 36.5675 12.2394 36.6602C12.2764 36.6695 12.4617 36.7251 12.471 36.7528C12.3969 36.7251 12.3227 36.688 12.2579 36.6602C12.332 36.6973 12.4061 36.725 12.4803 36.7621C12.7026 36.864 12.9157 36.9845 13.1196 37.1142C13.2215 37.179 13.3234 37.2439 13.4253 37.3088C13.4902 37.3551 13.555 37.4014 13.6199 37.4477C13.4068 37.281 13.379 37.2532 13.5272 37.3829C13.8978 37.7072 14.2314 38.0407 14.5464 38.4021C14.8244 38.7171 14.3148 38.0592 14.5464 38.4113C14.6113 38.5132 14.6854 38.6059 14.7502 38.7078C14.8799 38.9116 15.0004 39.1247 15.1116 39.3378C15.1301 39.3749 15.2876 39.6343 15.2691 39.6714C15.2413 39.5973 15.2042 39.5231 15.1764 39.4583C15.2042 39.5324 15.232 39.6065 15.2691 39.6899C15.3525 39.9216 15.4266 40.1624 15.4915 40.3941C15.5192 40.5145 15.547 40.635 15.5748 40.7554C15.5841 40.7925 15.5934 40.8388 15.5934 40.8759C15.6304 41.0797 15.6212 41.0426 15.5841 40.7554C15.7046 40.8944 15.6397 41.4688 15.6397 41.6449C15.6768 46.0459 15.6397 50.4376 15.6397 54.8386C15.6397 56.7287 15.6397 58.6095 15.6397 60.4996C15.6397 60.5367 15.6397 60.583 15.6397 60.6201C15.6397 60.7127 15.6397 60.7961 15.6397 60.8888C15.6397 61.0185 15.6304 61.1482 15.6119 61.2686C15.6026 61.352 15.5934 61.4354 15.5841 61.5188C15.6212 61.2316 15.6304 61.1945 15.5934 61.3983C15.5378 61.6392 15.4915 61.8894 15.4266 62.1303C15.3895 62.2415 15.2876 62.7789 15.1857 62.8252C15.2135 62.7511 15.2506 62.6769 15.2784 62.6121C15.2413 62.6862 15.2135 62.7603 15.1764 62.8344C15.1394 62.9086 15.1023 62.9827 15.0653 63.0475C14.9355 63.2977 14.7873 63.5386 14.6205 63.7702C14.5927 63.8073 14.5742 63.8351 14.5464 63.8722C14.426 64.0297 14.4537 64.0019 14.6205 63.7888C14.6205 63.8444 14.426 64.0204 14.3889 64.0667C14.2314 64.252 14.0646 64.4188 13.8886 64.5856C13.7959 64.669 13.7125 64.7523 13.6199 64.8265C13.5921 64.8543 13.555 64.8821 13.5272 64.9006C13.3697 65.021 13.3975 65.0025 13.6199 64.8357C13.6199 64.9376 13.0084 65.2434 12.9065 65.299C12.8231 65.3453 12.3227 65.6696 12.2579 65.6325C12.2764 65.6418 12.6285 65.4936 12.3598 65.5862C12.2394 65.6233 12.1282 65.6696 12.0077 65.7067C11.7761 65.7808 11.5352 65.8456 11.285 65.9012C11.2572 65.9105 10.9237 65.9846 10.9144 65.9661C11.2017 65.929 11.2387 65.929 11.0349 65.9476C10.9515 65.9568 10.8681 65.9661 10.7847 65.9661C10.2103 66.0032 9.63583 65.9846 9.06139 65.9846C8.08854 65.9846 7.16202 66.837 7.20834 67.8377C7.26393 68.8754 8.03295 69.7278 9.07065 69.7278Z" fill="#3298DC"/>
<path d="M3.69686 60.0455C3.69686 58.6372 3.69686 57.2382 3.69686 55.8298C3.69686 52.902 3.69686 49.965 3.69686 47.0372C3.69686 44.4429 3.69686 41.8486 3.69686 39.2544C3.69686 38.6799 3.69686 38.1055 3.69686 37.531C3.69686 36.9844 3.70613 36.4285 3.73392 35.8818C3.76172 35.3259 3.79878 34.7607 3.8451 34.2048C3.8729 33.9454 3.89143 33.6952 3.91923 33.4358C3.93776 33.3061 3.94702 33.1856 3.96555 33.0559C3.97482 32.9911 3.98408 32.9262 3.99335 32.8614C4.02114 32.6019 3.93776 33.232 3.97482 32.9725C4.28983 30.8693 4.7531 28.8032 5.42019 26.7926C5.58697 26.3016 5.75374 25.8105 5.93904 25.3287C6.0317 25.0971 6.11508 24.8655 6.20774 24.6338C6.25406 24.5227 6.30039 24.4022 6.34671 24.291C6.4301 24.0965 6.28186 24.4485 6.28186 24.4485C6.31892 24.3744 6.34671 24.3003 6.38378 24.2169C6.80071 23.2533 7.26397 22.3175 7.76429 21.391C8.25535 20.4923 8.78347 19.6214 9.34865 18.769C9.6266 18.3428 9.92309 17.9258 10.2196 17.5089C10.3678 17.3143 10.5068 17.1105 10.655 16.9159C10.6921 16.8696 10.7292 16.8233 10.7662 16.7677C10.8867 16.6009 10.6643 16.9066 10.6643 16.8974C10.7199 16.7769 10.8496 16.6658 10.933 16.5638C12.2116 14.961 13.6384 13.46 15.1765 12.098C15.5563 11.7645 15.9455 11.4309 16.3439 11.1066C16.5292 10.9584 16.7423 10.7175 16.9647 10.6156C16.9647 10.6156 16.6682 10.8379 16.8349 10.7175C16.8813 10.6804 16.9276 10.6434 16.9832 10.6063C17.0944 10.5229 17.2148 10.4303 17.326 10.3469C18.1506 9.74463 18.9937 9.17019 19.8647 8.6328C20.7541 8.08616 21.6714 7.57657 22.6072 7.11331C23.0704 6.88168 23.5337 6.65931 23.997 6.45548C24.1081 6.40915 24.2193 6.35356 24.3398 6.30723C24.3954 6.27944 24.451 6.26091 24.5065 6.23311C24.5065 6.23311 24.1545 6.38136 24.349 6.29797C24.5992 6.19605 24.8494 6.09413 25.0995 5.99222C27.0637 5.2232 29.0928 4.63023 31.159 4.23182C31.6778 4.12991 32.1967 4.03725 32.7248 3.96313C32.8545 3.9446 32.975 3.93534 33.1047 3.90754C33.1047 3.90754 32.7155 3.95387 32.9286 3.93534C32.9935 3.92607 33.0583 3.91681 33.1232 3.90754C33.4012 3.87048 33.6791 3.84268 33.9478 3.81489C35.0411 3.70371 36.1437 3.64812 37.2462 3.63885C38.2839 3.62959 39.3216 3.66665 40.3593 3.75003C40.8967 3.79636 41.4248 3.85195 41.953 3.91681C42.0178 3.92607 42.0827 3.93534 42.1475 3.9446C42.1475 3.9446 41.7584 3.88901 41.9715 3.92607C42.1012 3.9446 42.2217 3.96313 42.3514 3.98166C42.6479 4.02799 42.9351 4.07432 43.2316 4.12991C45.2884 4.49125 47.3175 5.04716 49.2725 5.76985C49.5041 5.85324 49.7358 5.94589 49.9674 6.03854C50.1064 6.09413 50.2361 6.14972 50.3658 6.19605C50.4399 6.22385 50.8476 6.40915 50.5974 6.2887C50.3473 6.16826 50.7086 6.33503 50.7735 6.36282C50.8846 6.40915 50.9958 6.46474 51.1163 6.51107C51.3572 6.62225 51.5981 6.73343 51.8482 6.84462C52.7747 7.28935 53.6827 7.77114 54.5629 8.28999C55.4617 8.81811 56.3326 9.38329 57.185 9.99479C57.3888 10.1338 57.5834 10.282 57.778 10.4303C57.8799 10.5044 57.9725 10.5785 58.0745 10.6526C58.1208 10.6897 58.1764 10.7267 58.2227 10.7638C58.1578 10.6989 57.9447 10.5507 58.1393 10.6989C58.5377 11.014 58.9361 11.3382 59.3253 11.6625C60.8911 12.9967 62.3365 14.4699 63.6521 16.0542C63.8096 16.2396 63.9579 16.4341 64.1154 16.6194C64.1895 16.7121 64.2914 16.8047 64.3377 16.9066C64.3377 16.9066 64.1154 16.6102 64.2358 16.7769C64.2822 16.8418 64.3377 16.9066 64.3841 16.9715C64.6898 17.3792 64.9863 17.7961 65.2828 18.213C65.8758 19.0747 66.4317 19.9549 66.9413 20.8629C67.4509 21.7524 67.9141 22.6696 68.3496 23.6054C68.4515 23.8278 68.5534 24.0594 68.6553 24.2818C68.6831 24.3374 68.7017 24.3929 68.7295 24.4485C68.7295 24.4485 68.5812 24.0965 68.6646 24.291C68.7202 24.4207 68.7758 24.5597 68.8314 24.6894C69.0352 25.1898 69.2205 25.6901 69.3966 26.1997C70.1007 28.1917 70.6196 30.2578 70.9531 32.3425C70.9716 32.4722 70.9902 32.5927 71.0087 32.7224C71.018 32.7965 71.0828 33.2042 71.0365 32.917C70.9902 32.6297 71.055 33.0467 71.0643 33.1115C71.0828 33.2598 71.1013 33.408 71.1199 33.5563C71.1755 34.0936 71.2218 34.6218 71.2589 35.1591C71.3052 35.9282 71.333 36.6879 71.333 37.4569C71.333 37.8646 71.333 38.2815 71.333 38.6892C71.333 40.9128 71.333 43.1272 71.333 45.3509C71.333 48.3991 71.333 51.4474 71.333 54.4957C71.333 57.127 71.333 59.749 71.333 62.3804C71.333 63.7516 71.3886 65.1321 71.2959 66.5034C71.2774 66.7628 71.2589 67.013 71.2311 67.2724C71.2218 67.3558 71.1384 67.7449 71.2125 67.467C71.2867 67.189 71.1847 67.6337 71.1662 67.7264C71.0828 68.2452 70.9716 68.7548 70.8327 69.2644C70.6937 69.7833 70.5269 70.3021 70.3416 70.8025C70.2953 70.9229 70.2582 71.0341 70.2119 71.1453C70.1934 71.2009 70.1563 71.2564 70.147 71.3213C70.147 71.3213 70.2953 70.9785 70.2119 71.1638C70.1007 71.4047 69.9988 71.6549 69.8783 71.8865C69.4336 72.8037 68.8962 73.6747 68.294 74.4993C68.2569 74.5456 68.2199 74.5919 68.1828 74.6475C68.0624 74.8143 68.294 74.5085 68.2847 74.5178C68.2384 74.6197 68.1272 74.7216 68.0531 74.805C67.8771 75.0274 67.6917 75.2405 67.4972 75.4536C67.1544 75.8335 66.8023 76.1948 66.4317 76.5376C66.0981 76.8526 65.6905 77.3252 65.2735 77.529C65.2643 77.529 65.5793 77.3066 65.4032 77.4271C65.3569 77.4641 65.3013 77.5012 65.255 77.5383C65.1531 77.6124 65.0604 77.6772 64.9585 77.7514C64.7454 77.8996 64.523 78.0479 64.3007 78.1961C63.8745 78.4741 63.4297 78.7242 62.9757 78.9558C62.7349 79.0763 62.5032 79.1967 62.2531 79.3079C62.1419 79.3635 62.0307 79.4098 61.9195 79.4562C61.7342 79.5396 62.077 79.3913 62.077 79.3913C62.0029 79.4098 61.9195 79.4562 61.8454 79.484C60.8818 79.8638 59.8719 80.1511 58.8527 80.3549C58.6118 80.4012 58.3431 80.4105 58.1022 80.4846C58.1022 80.4846 58.4914 80.4383 58.2783 80.4568C58.2134 80.4661 58.1486 80.4753 58.0837 80.4753C57.9355 80.4939 57.7872 80.5031 57.639 80.5217C57.1479 80.568 56.6476 80.5865 56.1473 80.5865C53.8217 80.5958 51.4869 80.5865 49.1613 80.5865C48.3923 80.5865 47.6325 80.5865 46.8635 80.5865C45.8907 80.5865 44.9642 81.4389 45.0105 82.4396C45.0568 83.4402 45.8258 84.2926 46.8635 84.2926C49.2076 84.2926 51.5517 84.2926 53.8958 84.2926C54.776 84.2926 55.6655 84.3111 56.5457 84.2926C58.8064 84.237 61.0764 83.7923 63.1703 82.9214C67.386 81.1795 70.9624 77.9923 73.01 73.8878C74.4276 71.0433 75.0298 68.0136 75.0298 64.8542C75.0298 62.8992 75.0298 60.9443 75.0298 58.9893C75.0298 55.9503 75.0298 52.9113 75.0298 49.8816C75.0298 47.0464 75.0298 44.2113 75.0298 41.3854C75.0298 40.0882 75.0298 38.7818 75.0298 37.4847C75.0205 33.1949 74.2979 28.8773 72.8247 24.8469C71.2959 20.6591 69.063 16.8047 66.2001 13.3859C63.4575 10.0967 60.1035 7.28008 56.4067 5.11202C52.6265 2.89763 48.4294 1.32254 44.1118 0.572061C39.5533 -0.224748 34.9299 -0.187687 30.39 0.673979C26.1094 1.48932 21.9586 3.11073 18.234 5.36218C14.565 7.58583 11.248 10.4303 8.55184 13.7657C5.72594 17.2402 3.52082 21.1409 2.04765 25.3843C0.694928 29.2757 0.0370973 33.408 0.027832 37.5218C0.027832 39.171 0.027832 40.8109 0.027832 42.4601C0.027832 45.4991 0.027832 48.5381 0.027832 51.5771C0.027832 54.0231 0.027832 56.4784 0.027832 58.9244C0.027832 59.3043 0.027832 59.6935 0.027832 60.0733C0.027832 61.0462 0.880232 61.9727 1.88088 61.9264C2.84446 61.8522 3.69686 61.0832 3.69686 60.0455Z" fill="#3298DC"/>
<path d="M44.9733 82.4303C44.9733 82.56 44.9733 82.6897 44.9641 82.8194C44.9641 82.8657 44.9548 82.9028 44.9548 82.9491C44.9363 83.153 44.9363 83.1159 44.9733 82.8287C45.0104 82.8472 44.8622 83.3846 44.8436 83.4402C44.8251 83.4958 44.7046 84.0146 44.6491 84.0239C44.6768 83.9498 44.7139 83.8756 44.7417 83.8108C44.7046 83.8849 44.6768 83.959 44.6398 84.0332C44.5842 84.1443 44.5286 84.2463 44.4637 84.3574C44.3989 84.4594 44.3433 84.5613 44.2692 84.6632C44.2506 84.7002 44.2229 84.728 44.2043 84.7651C44.1117 84.8948 44.1117 84.8948 44.2043 84.7744C44.2321 84.7466 44.2506 84.7095 44.2784 84.6817C44.2321 84.7466 44.1765 84.8022 44.1209 84.867C44.0375 84.9597 43.9634 85.0431 43.88 85.1357C43.7411 85.284 43.5836 85.4137 43.4353 85.5434C43.1388 85.8028 43.704 85.3951 43.4724 85.5063C43.3519 85.5712 43.2407 85.6638 43.1203 85.738C42.9443 85.8399 42.7682 85.9325 42.5829 86.0252C42.203 86.2197 42.9813 85.8955 42.5736 86.0252C42.4717 86.053 42.3791 86.09 42.2864 86.1271C42.0641 86.1919 41.851 86.2383 41.6193 86.2846C41.258 86.368 41.7398 86.2661 41.7398 86.2753C41.7212 86.3217 41.2858 86.3124 41.2302 86.3124C40.9522 86.3217 40.6835 86.3124 40.4056 86.3124C39.1918 86.3124 37.9781 86.3124 36.7736 86.3124C36.264 86.3124 35.7544 86.3124 35.2541 86.3124C35.1429 86.3124 35.0225 86.3124 34.9113 86.3124C34.8464 86.3124 34.7909 86.3124 34.7353 86.3124C34.6056 86.3124 34.4851 86.2939 34.3554 86.2939C34.2164 86.2753 34.2535 86.2846 34.4758 86.3124C34.3832 86.2939 34.2813 86.2753 34.1886 86.2568C33.9477 86.2105 33.7254 86.1364 33.4845 86.0622C33.0305 85.9233 33.818 86.2475 33.3918 86.0344C33.2899 85.9788 33.1787 85.9325 33.0768 85.8677C32.8637 85.7472 32.595 85.6175 32.419 85.4415C32.7062 85.7194 32.5209 85.5249 32.4653 85.4693C32.3263 85.3395 32.1873 85.2191 32.0576 85.0801C31.9742 84.9967 31.9001 84.9041 31.8167 84.8114C31.6221 84.6076 32.0484 85.1728 31.7982 84.7929C31.6685 84.5891 31.5388 84.3945 31.4276 84.1814C31.3627 84.0609 31.2886 83.9312 31.2423 83.7923C31.3998 84.237 31.2515 83.7645 31.2237 83.6996C31.1404 83.4402 31.0106 83.1159 31.0199 82.8472C31.0106 83.2456 31.0384 82.9954 31.0292 82.8935C31.0292 82.7453 31.0106 82.5878 31.0106 82.4395C31.0106 82.3747 30.9921 81.828 31.0477 81.8002C31.0384 81.8836 31.0292 81.9577 31.0106 82.0411C31.0199 81.9577 31.0384 81.8744 31.057 81.791C31.0755 81.7076 31.094 81.6242 31.1126 81.5501C31.1404 81.4296 31.1774 81.3092 31.2145 81.198C31.233 81.1424 31.3627 80.6606 31.2886 80.9571C31.2237 81.2351 31.3164 80.9015 31.3442 80.8459C31.3998 80.7347 31.4554 80.6328 31.5202 80.5216C31.5573 80.4475 31.7982 80.0028 31.8538 80.012C31.8075 80.0769 31.7611 80.1325 31.7148 80.1973C31.7611 80.1325 31.8167 80.0769 31.8723 80.012C31.9279 79.9472 31.9742 79.8916 32.0298 79.836C32.1966 79.66 32.3726 79.5025 32.5579 79.345C32.873 79.067 32.2151 79.5673 32.5672 79.345C32.6691 79.2801 32.771 79.206 32.873 79.1504C33.049 79.0485 33.225 78.9558 33.4103 78.8632C33.7624 78.6779 33.1139 78.9373 33.364 78.8817C33.4567 78.8632 33.5586 78.8076 33.6512 78.7798C33.8921 78.7056 34.133 78.6501 34.3739 78.6037C34.8001 78.5111 33.9385 78.6315 34.3832 78.6037C34.4666 78.5945 34.55 78.5945 34.6333 78.5852C34.726 78.5852 34.8279 78.5759 34.9206 78.5759C35.0318 78.5759 35.1522 78.5759 35.2634 78.5759C36.4401 78.5759 37.6075 78.5759 38.7842 78.5759C39.3864 78.5759 39.9886 78.5759 40.6001 78.5759C40.7577 78.5759 40.9059 78.5759 41.0634 78.5759C41.1097 78.5759 41.1561 78.5759 41.2024 78.5759C41.3321 78.5759 41.4526 78.5852 41.5823 78.5945C41.7954 78.613 41.7768 78.613 41.5359 78.5852C41.6286 78.6037 41.7305 78.6223 41.8232 78.6408C42.0641 78.6964 42.4625 78.7334 42.657 78.891C42.4069 78.6964 42.4903 78.8076 42.6107 78.8724C42.7775 78.9558 42.9535 79.0392 43.111 79.1411C43.2129 79.206 43.3149 79.2708 43.4075 79.3357C43.7967 79.6044 43.2778 79.1874 43.5372 79.4376C43.7411 79.6322 43.9449 79.836 44.1395 80.0398C44.4637 80.3734 43.9449 79.7248 44.1951 80.114C44.2692 80.2344 44.3526 80.3456 44.4267 80.4753C44.5008 80.5958 44.5657 80.7255 44.6305 80.8552C44.6954 80.9756 44.9085 81.2443 44.6768 80.9386C44.8251 81.1331 44.8714 81.5315 44.927 81.7724C44.9455 81.8744 45.103 82.3006 44.9548 81.8651C45.0011 82.0041 44.9733 82.2542 44.9733 82.4303C44.9826 83.4031 45.8165 84.3296 46.8264 84.2833C47.8178 84.237 48.6887 83.468 48.6794 82.4303C48.6424 79.6229 47.0395 76.8619 44.4545 75.6481C43.3705 75.1385 42.2586 74.8606 41.0541 74.8513C40.6557 74.8513 40.2573 74.8513 39.8497 74.8513C38.4784 74.8513 37.0979 74.8513 35.7266 74.8513C34.133 74.8513 32.6228 75.0181 31.196 75.8056C29.0186 77.0008 27.6381 79.2245 27.3509 81.6613C27.0173 84.4779 28.4442 87.2297 30.779 88.7862C32.2707 89.7776 33.9663 90 35.6988 90C37.0608 90 38.4228 90 39.7848 90C41.4989 90 43.111 89.9166 44.6768 89.1012C47.1321 87.8134 48.6516 85.1728 48.6794 82.421C48.6887 81.4482 47.8178 80.5216 46.8264 80.568C45.8165 80.6235 44.9826 81.3926 44.9733 82.4303Z" fill="#3298DC"/>
</svg>
