<svg width="76" height="91" viewBox="0 0 76 91" fill="none" xmlns="http://www.w3.org/2000/svg">
<path d="M64.6991 69.7563C65.3384 69.7563 65.9777 69.7841 66.617 69.7192C67.9234 69.5895 69.1556 69.2467 70.3138 68.6074C72.4448 67.4308 74.0755 65.3369 74.6962 62.9836C75.1873 61.0936 74.9927 58.9627 74.9927 57.0263C74.9927 54.0152 74.9927 51.0134 74.9927 48.0023C74.9927 45.9547 74.9927 43.9072 74.9927 41.8597C74.9927 37.6349 72.0835 33.6973 67.8585 32.8264C66.9227 32.6318 65.9962 32.6133 65.0419 32.6133C64.032 32.6133 63.0035 32.7059 62.04 33.0117C59.7236 33.7529 57.6668 35.4113 56.6013 37.6163C55.9249 39.0061 55.6284 40.4607 55.6284 41.9894C55.6284 42.8047 55.6284 43.6293 55.6284 44.4446C55.6284 47.3723 55.6284 50.3092 55.6284 53.237C55.6284 55.5532 55.6284 57.8601 55.6284 60.1764C55.6284 61.3808 55.7396 62.6038 56.1751 63.7341C57.046 65.9947 58.7137 67.9404 60.9652 68.9224C62.1511 69.4505 63.3834 69.747 64.6991 69.7563C65.6719 69.7655 66.5984 68.8946 66.5521 67.9033C66.5058 66.8934 65.7368 66.0596 64.6991 66.0503C64.4396 66.0503 64.1895 66.0318 63.9301 66.0133C63.4853 65.9762 64.3563 66.1059 63.9208 66.004C63.8003 65.9762 63.6799 65.9577 63.5502 65.9299C63.3093 65.8743 63.0684 65.8002 62.8368 65.7261C62.7904 65.7075 62.5125 65.6427 62.494 65.5963C62.7441 65.7075 62.7812 65.7168 62.5959 65.6334C62.5217 65.5963 62.4476 65.5593 62.3735 65.5222C62.1604 65.411 61.9473 65.2906 61.7435 65.1609C61.6415 65.096 61.5396 65.0219 61.447 64.9571C61.0949 64.7254 61.7527 65.2257 61.4377 64.9571C61.0671 64.6421 60.7336 64.2993 60.4185 63.9379C60.1406 63.6229 60.6502 64.2807 60.4185 63.9287C60.3537 63.8267 60.2796 63.7341 60.2147 63.6322C60.085 63.4284 59.9645 63.2153 59.8534 63.0022C59.8348 62.9651 59.6773 62.7057 59.6959 62.6686C59.7236 62.7428 59.7607 62.8169 59.7885 62.8817C59.7607 62.8076 59.7329 62.7335 59.6959 62.6501C59.5939 62.3814 59.5105 62.1035 59.4457 61.8163C59.4179 61.6958 59.3994 61.5754 59.3716 61.4457C59.2789 61.0287 59.3994 61.7792 59.3716 61.5013C59.353 61.2696 59.3252 61.038 59.3252 60.7971C59.3252 60.723 59.3252 60.6581 59.3252 60.584C59.3252 58.7681 59.3252 56.9522 59.3252 55.1363C59.3252 50.6521 59.2882 46.1771 59.3252 41.6929C59.3252 41.5632 59.3252 41.4335 59.3345 41.3038C59.3438 41.2018 59.353 41.0907 59.3623 40.9888C59.3994 40.5996 59.3252 41.0258 59.353 41.0443C59.2882 41.0073 59.6588 39.5527 59.7885 39.4971C59.7607 39.5712 59.7236 39.6453 59.6959 39.7102C59.7329 39.6361 59.7607 39.562 59.7978 39.4878C59.8534 39.3767 59.9089 39.2655 59.9645 39.1636C60.085 38.9505 60.2054 38.7466 60.3444 38.5428C60.3722 38.5058 60.3907 38.478 60.4185 38.4409C60.539 38.2834 60.5112 38.3112 60.3444 38.5243C60.3444 38.4687 60.539 38.2927 60.576 38.2463C60.7521 38.0518 60.9281 37.8665 61.1227 37.6812C61.1968 37.6163 61.2709 37.5422 61.3451 37.4774C61.3729 37.4496 61.4099 37.4218 61.4377 37.4032C61.5952 37.2828 61.5674 37.3013 61.3451 37.4681C61.3451 37.3754 61.8732 37.116 61.9473 37.0697C62.1604 36.9493 62.3735 36.8381 62.5959 36.7269C62.9757 36.5323 62.1975 36.8659 62.6051 36.7269C62.7626 36.6713 62.9109 36.6157 63.0684 36.5694C63.3093 36.4953 63.5502 36.4397 63.7911 36.3841C63.8281 36.3748 63.8745 36.3656 63.9115 36.3656C64.1154 36.3285 64.0783 36.3378 63.7911 36.3748C63.8467 36.3285 64.0968 36.347 64.171 36.3378C64.486 36.3192 64.801 36.3192 65.1067 36.3192C65.3662 36.3192 65.6256 36.3192 65.8943 36.3192C66.1537 36.3192 66.4039 36.3378 66.6633 36.3563C67.108 36.3934 66.2371 36.2637 66.6726 36.3656C66.8393 36.4026 66.9968 36.4304 67.1636 36.4675C67.4045 36.5323 67.6361 36.5972 67.8678 36.6898C67.9048 36.6991 68.0901 36.7547 68.0994 36.7825C68.0253 36.7547 67.9512 36.7176 67.8863 36.6898C67.9604 36.7269 68.0346 36.7547 68.1087 36.7918C68.331 36.8937 68.5441 37.0141 68.748 37.1438C68.8499 37.2087 68.9518 37.2735 69.0537 37.3384C69.1186 37.3847 69.1834 37.431 69.2483 37.4774C69.0352 37.3106 69.0074 37.2828 69.1556 37.4125C69.5263 37.7368 69.8598 38.0703 70.1748 38.4316C70.4528 38.7466 69.9432 38.0888 70.1748 38.4409C70.2397 38.5428 70.3138 38.6355 70.3787 38.7374C70.5084 38.9412 70.6288 39.1543 70.74 39.3674C70.7585 39.4045 70.916 39.6639 70.8975 39.7009C70.8697 39.6268 70.8326 39.5527 70.8048 39.4878C70.8326 39.562 70.8604 39.6361 70.8975 39.7195C70.9809 39.9511 71.055 40.192 71.1199 40.4236C71.1477 40.544 71.1755 40.6645 71.2033 40.7849C71.2125 40.822 71.2218 40.8683 71.2218 40.9054C71.2588 41.1092 71.2496 41.0721 71.2125 40.7849C71.333 40.9239 71.2681 41.4983 71.2681 41.6744C71.3052 46.0752 71.2681 50.4668 71.2681 54.8676C71.2681 56.7576 71.2681 58.6384 71.2681 60.5284C71.2681 60.5655 71.2681 60.6118 71.2681 60.6489C71.2681 60.7415 71.2681 60.8249 71.2681 60.9176C71.2681 61.0473 71.2588 61.177 71.2403 61.2974C71.2311 61.3808 71.2218 61.4642 71.2125 61.5476C71.2496 61.2604 71.2588 61.2233 71.2218 61.4271C71.1662 61.668 71.1199 61.9182 71.055 62.1591C71.018 62.2702 70.916 62.8076 70.8141 62.8539C70.8419 62.7798 70.879 62.7057 70.9068 62.6408C70.8697 62.715 70.8419 62.7891 70.8048 62.8632C70.7678 62.9373 70.7307 63.0114 70.6937 63.0763C70.564 63.3264 70.4157 63.5673 70.2489 63.799C70.2211 63.836 70.2026 63.8638 70.1748 63.9009C70.0544 64.0584 70.0822 64.0306 70.2489 63.8175C70.2489 63.8731 70.0544 64.0491 70.0173 64.0954C69.8598 64.2807 69.693 64.4475 69.517 64.6143C69.4243 64.6976 69.3409 64.781 69.2483 64.8552C69.2205 64.8829 69.1834 64.9107 69.1556 64.9293C68.9981 65.0497 69.0259 65.0312 69.2483 64.8644C69.2483 64.9663 68.6368 65.2721 68.5349 65.3277C68.4515 65.374 67.9512 65.6983 67.8863 65.6612C67.9048 65.6705 68.2569 65.5222 67.9882 65.6149C67.8678 65.6519 67.7566 65.6983 67.6361 65.7353C67.4045 65.8094 67.1636 65.8743 66.9135 65.9299C66.8857 65.9391 66.5521 66.0133 66.5428 65.9947C66.8301 65.9577 66.8671 65.9577 66.6633 65.9762C66.5799 65.9855 66.4965 65.9947 66.4131 65.9947C65.8387 66.0318 65.2642 66.0133 64.6898 66.0133C63.717 66.0133 62.7904 66.8656 62.8368 67.8662C62.8831 68.9039 63.6521 69.7563 64.6991 69.7563Z" fill="#28C76F"/>
<path d="M9.07065 69.7563C9.70995 69.7563 10.3493 69.7841 10.9886 69.7192C12.2949 69.5895 13.5272 69.2467 14.6854 68.6074C16.8164 67.4308 18.4471 65.3369 19.0678 62.9836C19.5589 61.0936 19.3643 58.9627 19.3643 57.0263C19.3643 54.0152 19.3643 51.0134 19.3643 48.0023C19.3643 45.9547 19.3643 43.9072 19.3643 41.8597C19.3643 37.6349 16.455 33.6973 12.2301 32.8264C11.2943 32.6318 10.3678 32.6133 9.41347 32.6133C8.40356 32.6133 7.37512 32.7059 6.41153 33.0117C4.09523 33.7529 2.03835 35.4113 0.972848 37.6163C0.296487 39.0061 0 40.4607 0 41.9894C0 42.8047 0 43.6293 0 44.4446C0 47.3723 0 50.3092 0 53.237C0 55.5532 0 57.8601 0 60.1764C0 61.3808 0.111183 62.6038 0.546648 63.7341C1.41758 65.9947 3.08532 67.9404 5.33677 68.9224C6.52272 69.4505 7.75499 69.747 9.07065 69.7563C10.0435 69.7655 10.97 68.8946 10.9237 67.9033C10.8774 66.8934 10.1084 66.0596 9.07065 66.0503C8.81123 66.0503 8.56106 66.0318 8.30164 66.0133C7.85691 65.9762 8.72784 66.1059 8.29237 66.004C8.17192 65.9762 8.05148 65.9577 7.92176 65.9299C7.68087 65.8743 7.43997 65.8002 7.20834 65.7261C7.16202 65.7075 6.88406 65.6427 6.86553 65.5963C7.11569 65.7075 7.15275 65.7168 6.96745 65.6334C6.89333 65.5963 6.8192 65.5593 6.74508 65.5222C6.53198 65.411 6.31888 65.2906 6.11505 65.1609C6.01313 65.096 5.91121 65.0219 5.81856 64.9571C5.46648 64.7254 6.12431 65.2257 5.80929 64.9571C5.43869 64.6421 5.10514 64.2993 4.79012 63.9379C4.51216 63.6229 5.02175 64.2807 4.79012 63.9287C4.72526 63.8267 4.65114 63.7341 4.58628 63.6322C4.45657 63.4284 4.33612 63.2153 4.22494 63.0022C4.20641 62.9651 4.0489 62.7057 4.06743 62.6686C4.09523 62.7428 4.13229 62.8169 4.16008 62.8817C4.13229 62.8076 4.10449 62.7335 4.06743 62.6501C3.96551 62.3814 3.88213 62.1035 3.81727 61.8163C3.78948 61.6958 3.77095 61.5754 3.74315 61.4457C3.6505 61.0287 3.77095 61.7792 3.74315 61.5013C3.72462 61.2696 3.69682 61.038 3.69682 60.7971C3.69682 60.723 3.69682 60.6581 3.69682 60.584C3.69682 58.7681 3.69682 56.9522 3.69682 55.1363C3.69682 50.6521 3.65976 46.1771 3.69682 41.6929C3.69682 41.5632 3.69682 41.4335 3.70609 41.3038C3.71535 41.2018 3.72462 41.0907 3.73388 40.9888C3.77094 40.5996 3.69682 41.0258 3.72462 41.0443C3.65976 41.0073 4.03037 39.5527 4.16008 39.4971C4.13229 39.5712 4.09523 39.6453 4.06743 39.7102C4.10449 39.6361 4.13229 39.562 4.16935 39.4878C4.22494 39.3767 4.28053 39.2655 4.33612 39.1636C4.45657 38.9505 4.57702 38.7466 4.716 38.5428C4.74379 38.5058 4.76232 38.478 4.79012 38.4409C4.91057 38.2834 4.88277 38.3112 4.716 38.5243C4.716 38.4687 4.91057 38.2927 4.94763 38.2463C5.12367 38.0518 5.29971 37.8665 5.49428 37.6812C5.5684 37.6163 5.64252 37.5422 5.71664 37.4774C5.74444 37.4496 5.7815 37.4218 5.80929 37.4032C5.9668 37.2828 5.93901 37.3013 5.71664 37.4681C5.71664 37.3754 6.24476 37.116 6.31888 37.0697C6.53198 36.9493 6.74508 36.8381 6.96745 36.7269C7.34732 36.5323 6.56904 36.8659 6.97671 36.7269C7.13422 36.6713 7.28246 36.6157 7.43997 36.5694C7.68087 36.4953 7.92176 36.4397 8.16266 36.3841C8.19972 36.3748 8.24605 36.3656 8.28311 36.3656C8.48694 36.3285 8.44988 36.3378 8.16266 36.3748C8.21825 36.3285 8.46841 36.347 8.54253 36.3378C8.85755 36.3192 9.17257 36.3192 9.47832 36.3192C9.73775 36.3192 9.99717 36.3192 10.2659 36.3192C10.5253 36.3192 10.7755 36.3378 11.0349 36.3563C11.4796 36.3934 10.6087 36.2637 11.0441 36.3656C11.2109 36.4026 11.3684 36.4304 11.5352 36.4675C11.7761 36.5323 12.0077 36.5972 12.2394 36.6898C12.2764 36.6991 12.4617 36.7547 12.471 36.7825C12.3969 36.7547 12.3227 36.7176 12.2579 36.6898C12.332 36.7269 12.4061 36.7547 12.4803 36.7918C12.7026 36.8937 12.9157 37.0141 13.1196 37.1438C13.2215 37.2087 13.3234 37.2735 13.4253 37.3384C13.4902 37.3847 13.555 37.431 13.6199 37.4774C13.4068 37.3106 13.379 37.2828 13.5272 37.4125C13.8978 37.7368 14.2314 38.0703 14.5464 38.4316C14.8244 38.7466 14.3148 38.0888 14.5464 38.4409C14.6113 38.5428 14.6854 38.6355 14.7502 38.7374C14.8799 38.9412 15.0004 39.1543 15.1116 39.3674C15.1301 39.4045 15.2876 39.6639 15.2691 39.7009C15.2413 39.6268 15.2042 39.5527 15.1764 39.4878C15.2042 39.562 15.232 39.6361 15.2691 39.7195C15.3525 39.9511 15.4266 40.192 15.4915 40.4236C15.5192 40.544 15.547 40.6645 15.5748 40.7849C15.5841 40.822 15.5934 40.8683 15.5934 40.9054C15.6304 41.1092 15.6212 41.0721 15.5841 40.7849C15.7046 40.9239 15.6397 41.4983 15.6397 41.6744C15.6768 46.0752 15.6397 50.4668 15.6397 54.8676C15.6397 56.7576 15.6397 58.6384 15.6397 60.5284C15.6397 60.5655 15.6397 60.6118 15.6397 60.6489C15.6397 60.7415 15.6397 60.8249 15.6397 60.9176C15.6397 61.0473 15.6304 61.177 15.6119 61.2974C15.6026 61.3808 15.5934 61.4642 15.5841 61.5476C15.6212 61.2604 15.6304 61.2233 15.5934 61.4271C15.5378 61.668 15.4915 61.9182 15.4266 62.1591C15.3895 62.2702 15.2876 62.8076 15.1857 62.8539C15.2135 62.7798 15.2506 62.7057 15.2783 62.6408C15.2413 62.715 15.2135 62.7891 15.1764 62.8632C15.1394 62.9373 15.1023 63.0114 15.0653 63.0763C14.9355 63.3264 14.7873 63.5673 14.6205 63.799C14.5927 63.836 14.5742 63.8638 14.5464 63.9009C14.426 64.0584 14.4537 64.0306 14.6205 63.8175C14.6205 63.8731 14.426 64.0491 14.3889 64.0954C14.2314 64.2807 14.0646 64.4475 13.8886 64.6143C13.7959 64.6976 13.7125 64.781 13.6199 64.8552C13.5921 64.8829 13.555 64.9107 13.5272 64.9293C13.3697 65.0497 13.3975 65.0312 13.6199 64.8644C13.6199 64.9663 13.0084 65.2721 12.9065 65.3277C12.8231 65.374 12.3227 65.6983 12.2579 65.6612C12.2764 65.6705 12.6285 65.5222 12.3598 65.6149C12.2394 65.6519 12.1282 65.6983 12.0077 65.7353C11.7761 65.8094 11.5352 65.8743 11.285 65.9299C11.2572 65.9391 10.9237 66.0133 10.9144 65.9947C11.2017 65.9577 11.2387 65.9577 11.0349 65.9762C10.9515 65.9855 10.8681 65.9947 10.7847 65.9947C10.2103 66.0318 9.63583 66.0133 9.06139 66.0133C8.08854 66.0133 7.16202 66.8656 7.20834 67.8662C7.26393 68.9039 8.03295 69.7563 9.07065 69.7563Z" fill="#28C76F"/>
<path d="M3.69686 60.0746C3.69686 58.6663 3.69686 57.2673 3.69686 55.859C3.69686 52.9313 3.69686 49.9943 3.69686 47.0666C3.69686 44.4724 3.69686 41.8783 3.69686 39.2841C3.69686 38.7097 3.69686 38.1352 3.69686 37.5608C3.69686 37.0142 3.70612 36.4583 3.73392 35.9117C3.76172 35.3558 3.79878 34.7906 3.8451 34.2347C3.8729 33.9753 3.89143 33.7251 3.91922 33.4657C3.93775 33.336 3.94702 33.2156 3.96555 33.0859C3.97482 33.021 3.98408 32.9562 3.99335 32.8913C4.02114 32.6319 3.93776 33.2619 3.97482 33.0025C4.28983 30.8993 4.75309 28.8333 5.42019 26.8228C5.58696 26.3317 5.75374 25.8407 5.93904 25.3589C6.03169 25.1273 6.11508 24.8957 6.20773 24.664C6.25406 24.5529 6.30039 24.4324 6.34671 24.3212C6.4301 24.1267 6.28186 24.4787 6.28186 24.4787C6.31892 24.4046 6.34671 24.3305 6.38377 24.2471C6.80071 23.2836 7.26397 22.3478 7.76429 21.4213C8.25535 20.5226 8.78347 19.6517 9.34864 18.7994C9.6266 18.3732 9.92309 17.9562 10.2196 17.5393C10.3678 17.3448 10.5068 17.1409 10.655 16.9464C10.6921 16.9 10.7292 16.8537 10.7662 16.7981C10.8867 16.6314 10.6643 16.9371 10.6643 16.9278C10.7199 16.8074 10.8496 16.6962 10.933 16.5943C12.2116 14.9915 13.6384 13.4906 15.1765 12.1286C15.5563 11.7951 15.9455 11.4615 16.3439 11.1373C16.5292 10.989 16.7423 10.7481 16.9647 10.6462C16.9647 10.6462 16.6682 10.8686 16.8349 10.7481C16.8813 10.7111 16.9276 10.674 16.9832 10.637C17.0944 10.5536 17.2148 10.4609 17.326 10.3775C18.1506 9.77532 18.9937 9.20089 19.8647 8.66353C20.7541 8.1169 21.6714 7.60733 22.6072 7.14408C23.0704 6.91246 23.5337 6.6901 23.997 6.48627C24.1081 6.43995 24.2193 6.38436 24.3398 6.33803C24.3954 6.31024 24.451 6.29171 24.5065 6.26391C24.5065 6.26391 24.1545 6.41215 24.349 6.32877C24.5992 6.22685 24.8494 6.12494 25.0995 6.02303C27.0637 5.25404 29.0928 4.66108 31.159 4.26269C31.6778 4.16078 32.1967 4.06813 32.7248 3.99401C32.8545 3.97548 32.975 3.96621 33.1047 3.93842C33.1047 3.93842 32.7155 3.98474 32.9286 3.96621C32.9935 3.95695 33.0583 3.94768 33.1232 3.93842C33.4012 3.90136 33.6791 3.87356 33.9478 3.84577C35.0411 3.73459 36.1437 3.679 37.2462 3.66974C38.2839 3.66047 39.3216 3.69753 40.3593 3.78092C40.8967 3.82724 41.4248 3.88283 41.9529 3.94768C42.0178 3.95695 42.0827 3.96621 42.1475 3.97548C42.1475 3.97548 41.7584 3.91989 41.9715 3.95695C42.1012 3.97548 42.2216 3.99401 42.3514 4.01254C42.6478 4.05886 42.9351 4.10519 43.2315 4.16078C45.2884 4.52211 47.3175 5.078 49.2725 5.80067C49.5041 5.88405 49.7357 5.9767 49.9674 6.06935C50.1063 6.12494 50.2361 6.18053 50.3658 6.22685C50.4399 6.25465 50.8476 6.43995 50.5974 6.3195C50.3472 6.19906 50.7086 6.36583 50.7734 6.39362C50.8846 6.43995 50.9958 6.49554 51.1162 6.54186C51.3571 6.65304 51.598 6.76422 51.8482 6.8754C52.7747 7.32012 53.6827 7.80189 54.5629 8.32073C55.4616 8.84883 56.3326 9.41399 57.185 10.0255C57.3888 10.1644 57.5834 10.3127 57.7779 10.4609C57.8799 10.535 57.9725 10.6092 58.0744 10.6833C58.1208 10.7203 58.1763 10.7574 58.2227 10.7945C58.1578 10.7296 57.9447 10.5814 58.1393 10.7296C58.5377 11.0446 58.9361 11.3689 59.3252 11.6932C60.8911 13.0273 62.3364 14.5004 63.6521 16.0847C63.8096 16.27 63.9578 16.4646 64.1154 16.6499C64.1895 16.7425 64.2914 16.8352 64.3377 16.9371C64.3377 16.9371 64.1154 16.6406 64.2358 16.8074C64.2821 16.8722 64.3377 16.9371 64.384 17.002C64.6898 17.4096 64.9863 17.8265 65.2828 18.2435C65.8757 19.1051 66.4317 19.9853 66.9412 20.8932C67.4508 21.7827 67.9141 22.6999 68.3496 23.6356C68.4515 23.858 68.5534 24.0896 68.6553 24.312C68.6831 24.3676 68.7016 24.4232 68.7294 24.4787C68.7294 24.4787 68.5812 24.1267 68.6646 24.3212C68.7202 24.451 68.7758 24.5899 68.8314 24.7196C69.0352 25.2199 69.2205 25.7202 69.3965 26.2298C70.1007 28.2218 70.6195 30.2879 70.9531 32.3725C70.9716 32.5022 70.9901 32.6226 71.0087 32.7523C71.0179 32.8264 71.0828 33.2341 71.0365 32.9469C70.9901 32.6597 71.055 33.0766 71.0643 33.1414C71.0828 33.2897 71.1013 33.4379 71.1199 33.5862C71.1755 34.1235 71.2218 34.6516 71.2588 35.189C71.3052 35.958 71.333 36.7177 71.333 37.4867C71.333 37.8943 71.333 38.3113 71.333 38.7189C71.333 40.9425 71.333 43.1568 71.333 45.3804C71.333 48.4286 71.333 51.4767 71.333 54.5249C71.333 57.1561 71.333 59.7781 71.333 62.4093C71.333 63.7805 71.3885 65.161 71.2959 66.5322C71.2774 66.7916 71.2588 67.0418 71.231 67.3012C71.2218 67.3846 71.1384 67.7737 71.2125 67.4958C71.2866 67.2178 71.1847 67.6625 71.1662 67.7552C71.0828 68.274 70.9716 68.7836 70.8326 69.2932C70.6937 69.812 70.5269 70.3308 70.3416 70.8311C70.2952 70.9516 70.2582 71.0628 70.2119 71.174C70.1933 71.2295 70.1563 71.2851 70.147 71.35C70.147 71.35 70.2953 71.0072 70.2119 71.1925C70.1007 71.4334 69.9988 71.6835 69.8783 71.9151C69.4336 72.8324 68.8962 73.7033 68.294 74.5278C68.2569 74.5742 68.2198 74.6205 68.1828 74.6761C68.0623 74.8429 68.294 74.5371 68.2847 74.5464C68.2384 74.6483 68.1272 74.7502 68.0531 74.8336C67.877 75.0559 67.6917 75.269 67.4972 75.4821C67.1544 75.862 66.8023 76.2233 66.4317 76.5661C66.0981 76.8811 65.6904 77.3536 65.2735 77.5575C65.2642 77.5575 65.5793 77.3351 65.4032 77.4556C65.3569 77.4926 65.3013 77.5297 65.255 77.5667C65.1531 77.6409 65.0604 77.7057 64.9585 77.7798C64.7454 77.9281 64.523 78.0763 64.3007 78.2245C63.8745 78.5025 63.4297 78.7526 62.9757 78.9843C62.7348 79.1047 62.5032 79.2252 62.253 79.3363C62.1419 79.3919 62.0307 79.4382 61.9195 79.4846C61.7342 79.568 62.077 79.4197 62.077 79.4197C62.0029 79.4383 61.9195 79.4846 61.8454 79.5124C60.8818 79.8922 59.8719 80.1794 58.8527 80.3833C58.6118 80.4296 58.3431 80.4389 58.1022 80.513C58.1022 80.513 58.4914 80.4667 58.2783 80.4852C58.2134 80.4945 58.1486 80.5037 58.0837 80.5037C57.9355 80.5222 57.7872 80.5315 57.639 80.55C57.1479 80.5964 56.6476 80.6149 56.1473 80.6149C53.8217 80.6242 51.4869 80.6149 49.1613 80.6149C48.3923 80.6149 47.6325 80.6149 46.8635 80.6149C45.8907 80.6149 44.9641 81.4673 45.0105 82.4679C45.0568 83.4685 45.8258 84.3209 46.8635 84.3209C49.2076 84.3209 51.5517 84.3209 53.8958 84.3209C54.776 84.3209 55.6655 84.3394 56.5457 84.3209C58.8064 84.2653 61.0764 83.8206 63.1703 82.9497C67.386 81.2079 70.9624 78.0207 73.01 73.9164C74.4275 71.072 75.0298 68.0424 75.0298 64.8831C75.0298 62.9282 75.0298 60.9733 75.0298 59.0184C75.0298 55.9795 75.0298 52.9406 75.0298 49.911C75.0298 47.0759 75.0298 44.2408 75.0298 41.415C75.0298 40.1179 75.0298 38.8116 75.0298 37.5145C75.0205 33.2248 74.2978 28.9074 72.8247 24.8771C71.2959 20.6894 69.063 16.8352 66.2 13.4164C63.4575 10.1274 60.1035 7.31085 56.4067 5.14286C52.6265 2.92854 48.4293 1.35351 44.1117 0.603048C39.5533 -0.193735 34.9299 -0.156675 30.39 0.704962C26.1094 1.52028 21.9586 3.14164 18.234 5.39301C14.565 7.61659 11.248 10.4609 8.55183 13.7963C5.72594 17.2706 3.52082 21.1712 2.04765 25.4145C0.694928 29.3058 0.0370973 33.4379 0.027832 37.5515C0.027832 39.2007 0.027832 40.8406 0.027832 42.4897C0.027832 45.5286 0.027832 48.5675 0.027832 51.6064C0.027832 54.0524 0.027832 56.5076 0.027832 58.9535C0.027832 59.3334 0.027832 59.7225 0.027832 60.1024C0.027832 61.0752 0.880232 62.0017 1.88088 61.9554C2.84446 61.8812 3.69686 61.1122 3.69686 60.0746Z" fill="url(#paint0_linear)"/>
<path d="M44.9734 82.4582C44.9734 82.5879 44.9734 82.7177 44.9641 82.8474C44.9641 82.8937 44.9549 82.9307 44.9549 82.9771C44.9363 83.1809 44.9363 83.1438 44.9734 82.8566C45.0105 82.8751 44.8622 83.4125 44.8437 83.4681C44.8251 83.5237 44.7047 84.0425 44.6491 84.0517C44.6769 83.9776 44.714 83.9035 44.7418 83.8387C44.7047 83.9128 44.6769 83.9869 44.6398 84.061C44.5843 84.1722 44.5287 84.2741 44.4638 84.3853C44.3989 84.4872 44.3434 84.5891 44.2692 84.691C44.2507 84.728 44.2229 84.7558 44.2044 84.7929C44.1117 84.9226 44.1117 84.9226 44.2044 84.8022C44.2322 84.7744 44.2507 84.7373 44.2785 84.7095C44.2322 84.7744 44.1766 84.83 44.121 84.8948C44.0376 84.9875 43.9635 85.0708 43.8801 85.1635C43.7411 85.3117 43.5836 85.4414 43.4354 85.5711C43.1389 85.8305 43.7041 85.4229 43.4724 85.5341C43.352 85.5989 43.2408 85.6916 43.1203 85.7657C42.9443 85.8676 42.7683 85.9602 42.583 86.0529C42.2031 86.2474 42.9814 85.9232 42.5737 86.0529C42.4718 86.0807 42.3791 86.1177 42.2865 86.1548C42.0641 86.2196 41.851 86.266 41.6194 86.3123C41.258 86.3957 41.7398 86.2937 41.7398 86.303C41.7213 86.3493 41.2858 86.3401 41.2302 86.3401C40.9523 86.3493 40.6836 86.3401 40.4056 86.3401C39.1919 86.3401 37.9781 86.3401 36.7736 86.3401C36.2641 86.3401 35.7545 86.3401 35.2541 86.3401C35.143 86.3401 35.0225 86.3401 34.9113 86.3401C34.8465 86.3401 34.7909 86.3401 34.7353 86.3401C34.6056 86.3401 34.4851 86.3215 34.3554 86.3215C34.2164 86.303 34.2535 86.3123 34.4759 86.3401C34.3832 86.3215 34.2813 86.303 34.1886 86.2845C33.9477 86.2382 33.7254 86.164 33.4845 86.0899C33.0305 85.951 33.818 86.2752 33.3918 86.0621C33.2899 86.0065 33.1787 85.9602 33.0768 85.8954C32.8637 85.7749 32.595 85.6452 32.419 85.4692C32.7062 85.7471 32.5209 85.5526 32.4653 85.497C32.3263 85.3673 32.1873 85.2469 32.0576 85.1079C31.9742 85.0245 31.9001 84.9319 31.8167 84.8392C31.6222 84.6354 32.0484 85.2005 31.7982 84.8207C31.6685 84.6169 31.5388 84.4223 31.4276 84.2092C31.3627 84.0888 31.2886 83.9591 31.2423 83.8201C31.3998 84.2648 31.2516 83.7923 31.2238 83.7275C31.1404 83.4681 31.0107 83.1438 31.0199 82.8751C31.0107 83.2735 31.0385 83.0234 31.0292 82.9215C31.0292 82.7732 31.0107 82.6157 31.0107 82.4675C31.0107 82.4027 30.9921 81.8561 31.0477 81.8283C31.0385 81.9116 31.0292 81.9858 31.0107 82.0691C31.0199 81.9858 31.0385 81.9024 31.057 81.819C31.0755 81.7356 31.094 81.6522 31.1126 81.5781C31.1404 81.4577 31.1774 81.3372 31.2145 81.2261C31.233 81.1705 31.3627 80.6887 31.2886 80.9852C31.2238 81.2631 31.3164 80.9296 31.3442 80.874C31.3998 80.7628 31.4554 80.6609 31.5202 80.5498C31.5573 80.4756 31.7982 80.0309 31.8538 80.0402C31.8075 80.1051 31.7611 80.1606 31.7148 80.2255C31.7611 80.1606 31.8167 80.1051 31.8723 80.0402C31.9279 79.9754 31.9742 79.9198 32.0298 79.8642C32.1966 79.6882 32.3726 79.5307 32.558 79.3732C32.873 79.0952 32.2151 79.5955 32.5672 79.3732C32.6691 79.3083 32.7711 79.2342 32.873 79.1786C33.049 79.0767 33.2251 78.9841 33.4104 78.8914C33.7624 78.7061 33.1139 78.9655 33.364 78.9099C33.4567 78.8914 33.5586 78.8358 33.6513 78.808C33.8922 78.7339 34.133 78.6783 34.3739 78.632C34.8001 78.5394 33.9385 78.6598 34.3832 78.632C34.4666 78.6227 34.55 78.6227 34.6334 78.6135C34.726 78.6135 34.8279 78.6042 34.9206 78.6042C35.0318 78.6042 35.1522 78.6042 35.2634 78.6042C36.4401 78.6042 37.6075 78.6042 38.7842 78.6042C39.3864 78.6042 39.9887 78.6042 40.6002 78.6042C40.7577 78.6042 40.9059 78.6042 41.0635 78.6042C41.1098 78.6042 41.1561 78.6042 41.2024 78.6042C41.3321 78.6042 41.4526 78.6135 41.5823 78.6227C41.7954 78.6413 41.7769 78.6413 41.536 78.6135C41.6286 78.632 41.7306 78.6505 41.8232 78.6691C42.0641 78.7246 42.4625 78.7617 42.6571 78.9192C42.4069 78.7246 42.4903 78.8358 42.6108 78.9007C42.7775 78.9841 42.9536 79.0674 43.1111 79.1693C43.213 79.2342 43.3149 79.299 43.4076 79.3639C43.7967 79.6326 43.2779 79.2157 43.5373 79.4658C43.7411 79.6604 43.9449 79.8642 44.1395 80.068C44.4638 80.4015 43.945 79.753 44.1951 80.1421C44.2692 80.2626 44.3526 80.3737 44.4267 80.5034C44.5009 80.6239 44.5657 80.7536 44.6306 80.8833C44.6954 81.0037 44.9085 81.2724 44.6769 80.9667C44.8251 81.1612 44.8715 81.5596 44.9271 81.8005C44.9456 81.9024 45.1031 82.3285 44.9549 81.8931C45.0012 82.0321 44.9734 82.2822 44.9734 82.4582C44.9827 83.431 45.8165 84.3575 46.8264 84.3111C47.8178 84.2648 48.6888 83.4959 48.6795 82.4582C48.6424 79.6511 47.0395 76.8903 44.4545 75.6766C43.3705 75.1671 42.2587 74.8891 41.0542 74.8799C40.6558 74.8799 40.2574 74.8799 39.8497 74.8799C38.4785 74.8799 37.0979 74.8799 35.7267 74.8799C34.133 74.8799 32.6228 75.0466 31.196 75.8341C29.0186 77.0292 27.6381 79.2527 27.3509 81.6893C27.0173 84.5057 28.4442 87.2573 30.779 88.8137C32.2707 89.805 33.9663 90.0273 35.6989 90.0273C37.0609 90.0273 38.4229 90.0273 39.7849 90.0273C41.4989 90.0273 43.1111 89.944 44.6769 89.1287C47.1322 87.8409 48.6517 85.2005 48.6795 82.449C48.6888 81.4762 47.8178 80.5498 46.8264 80.5961C45.8165 80.6517 44.9827 81.4206 44.9734 82.4582Z" fill="#28C76F"/>
<defs>
<linearGradient id="paint0_linear" x1="37.5288" y1="0.0310059" x2="37.5288" y2="84.3291" gradientUnits="userSpaceOnUse">
<stop stop-color="#50D5B7"/>
<stop offset="1" stop-color="#28C76F"/>
</linearGradient>
</defs>
</svg>
