<svg width="99" height="90" viewBox="0 0 99 90" fill="none" xmlns="http://www.w3.org/2000/svg">
<path d="M69.5414 29.6599L45.4299 53.9482L33.1576 42.8881L29.9145 46.1535L45.6141 60.3034L72.9688 32.7497L69.5414 29.6599Z" fill="#3298DC"/>
<path d="M49.907 0C47.7587 0.00314599 45.8875 0.877783 44.4096 1.96405C42.9318 3.05031 41.729 4.37085 40.5895 5.67599C38.3107 8.28671 36.1678 10.7246 34.4799 11.3618C32.792 11.9996 29.4154 11.6448 25.815 11.2538C24.0148 11.0605 22.1567 10.8989 20.2801 11.0831C18.4036 11.2629 16.4073 11.8517 14.8694 13.2409C13.3314 14.6296 12.6689 16.4428 12.4506 18.1537C12.2323 19.8647 12.3872 21.5606 12.5814 23.2059C12.9699 26.4966 13.3182 29.5821 12.6017 31.1164C11.8853 32.6503 9.19767 34.5907 6.314 36.6432C4.87211 37.6692 3.40552 38.7483 2.20009 40.0858C0.994576 41.4228 0.027209 43.1217 0.000562071 45.0826C-0.0260433 47.0434 0.895156 48.741 2.06434 50.0744C3.23352 51.4083 4.67429 52.4857 6.08836 53.5077C8.91643 55.5503 11.5464 57.4737 12.2212 59.0053C12.8959 60.537 12.4708 63.6227 11.993 66.9147C11.7541 68.5605 11.5425 70.2608 11.7143 71.9713C11.886 73.6814 12.5011 75.4956 14.0014 76.8798C15.5018 78.2636 17.4788 78.8429 19.3503 79.0178C21.2219 79.1931 23.0933 79.0179 24.8989 78.8247C28.5099 78.4247 31.8962 78.0623 33.567 78.6946C35.2375 79.3265 37.3145 81.7538 39.5225 84.3569C40.6265 85.6589 41.7987 86.9809 43.2471 88.0623C44.6955 89.1436 46.5326 90.004 48.6809 90C50.8293 89.9968 52.7021 89.1321 54.1799 88.0458C55.6578 86.9595 56.859 85.6291 57.9984 84.324C60.2772 81.7133 62.4307 79.2742 64.1186 78.6365C65.8065 77.9987 69.1831 78.3536 72.7835 78.7446C74.5837 78.9378 76.4434 79.1081 78.32 78.9284C80.1964 78.7486 82.1822 78.162 83.7202 76.7728C85.2581 75.3837 85.9312 73.5688 86.1495 71.8583C86.3678 70.1474 86.2007 68.4432 86.0065 66.7979C85.6181 63.5072 85.2698 60.4212 85.9862 58.8868C86.7026 57.353 89.392 55.4225 92.2756 53.37C93.7175 52.3439 95.1825 51.2551 96.388 49.9181C97.5934 48.5806 98.5623 46.8913 98.589 44.93C98.6154 42.9692 97.6945 41.2722 96.5253 39.9387C95.3561 38.6053 93.9258 37.5254 92.5118 36.5038C89.6836 34.4607 87.0416 32.5296 86.3668 30.9979C85.692 29.4658 86.1278 26.3795 86.6056 23.0874C86.8444 21.4412 87.0454 19.7425 86.8737 18.0325C86.7019 16.3215 86.0885 14.5171 84.5882 13.1333C83.0878 11.7495 81.1093 11.1609 79.2377 10.986C77.3661 10.8108 75.5068 10.9862 73.7013 11.1885C70.0901 11.5885 66.704 11.9508 65.0332 11.3185C63.3626 10.6866 61.275 8.26041 59.0671 5.65733C57.9631 4.35579 56.8014 3.0322 55.353 1.95088C53.9047 0.86956 52.0554 0.00134214 49.9071 0.00493755L49.907 0ZM49.8524 4.4021C50.6273 4.4012 51.3383 4.68034 52.2614 5.36931C53.1845 6.05828 54.1971 7.142 55.2413 8.37298C57.3295 10.8349 59.4268 13.9791 63.1298 15.3805C66.8326 16.7813 70.797 15.9269 74.2124 15.5467C75.9202 15.3579 77.4899 15.25 78.6829 15.3624C79.8759 15.4747 80.5905 15.7443 81.1315 16.2445C81.6725 16.7434 81.9628 17.3996 82.0723 18.4895C82.1817 19.5798 82.0487 21.0115 81.8226 22.5679C81.3706 25.6815 80.3961 29.2879 81.8917 32.6833C83.3874 36.0787 86.8061 38.0309 89.4809 39.9634C90.8182 40.9292 91.9972 41.8665 92.7423 42.7164C93.4874 43.5662 93.7841 44.2199 93.7746 44.9273C93.7652 45.6347 93.4503 46.2972 92.6821 47.1497C91.9138 48.0019 90.7129 48.9417 89.3492 49.912C86.6218 51.8531 83.1464 53.8126 81.5585 57.2125C79.9707 60.6128 80.8507 64.2189 81.218 67.3311C81.4017 68.8875 81.4944 70.3089 81.3553 71.3997C81.2161 72.49 80.9099 73.156 80.3551 73.6567C79.8004 74.1578 79.0679 74.4338 77.8719 74.5493C76.6759 74.6661 75.1194 74.5495 73.4168 74.3787C70.0116 74.0101 66.0617 73.1636 62.3205 74.5762C58.5793 75.9896 56.4033 79.1462 54.248 81.6149C53.1705 82.85 52.1266 83.9387 51.1847 84.6312C50.2429 85.3233 49.5209 85.5938 48.7461 85.5951C47.9712 85.596 47.2513 85.3301 46.3282 84.6389C45.4052 83.9499 44.3925 82.8668 43.3484 81.6358C41.2601 79.1738 39.1629 76.0291 35.4598 74.6277C31.757 73.2269 27.791 74.0716 24.3756 74.4527C22.6679 74.6415 21.0998 74.7582 19.9068 74.6459C18.7137 74.5335 17.9991 74.2638 17.4582 73.7631C16.917 73.2638 16.6253 72.5996 16.5157 71.5089C16.4063 70.419 16.5394 68.9873 16.7654 67.4305C17.2173 64.3173 18.2024 60.7089 16.7068 57.314C15.2112 53.919 11.7836 51.9779 9.10879 50.0453C7.77144 49.0791 6.59247 48.1417 5.84731 47.2918C5.10214 46.442 4.81436 45.7769 4.824 45.0699C4.83362 44.3625 5.13766 43.7018 5.90596 42.8497C6.67417 41.9967 7.87675 41.0665 9.24048 40.0962C11.9678 38.1547 15.4432 36.1961 17.0312 32.7957C18.6189 29.3954 17.7495 25.7872 17.3821 22.6754C17.1984 21.1191 17.0936 19.689 17.2327 18.5986C17.3718 17.5083 17.6799 16.8522 18.2346 16.3515C18.7893 15.8509 19.5218 15.5744 20.7177 15.4589C21.9137 15.3421 23.4808 15.4588 25.1834 15.6295C28.5885 15.9981 32.5263 16.8362 36.2675 15.4227C40.0088 14.0097 42.1864 10.8629 44.3416 8.39328C45.4192 7.15916 46.4631 6.06966 47.4049 5.37754C48.3468 4.68542 49.0777 4.4039 49.8525 4.4021H49.8524Z" fill="#3298DC"/>
</svg>
