<svg width="97" height="81" viewBox="0 0 97 81" fill="none" xmlns="http://www.w3.org/2000/svg">
<path d="M13.0331 80.9661H66.9564C70.4146 80.9621 73.7299 79.5866 76.1752 77.1414C78.6205 74.6962 79.996 71.3809 80 67.9229V25.076L96.4309 12.3973L88.1282 1.63464L40.0168 38.7705L30.6915 26.6895L19.9285 34.9924L37.5586 57.8255L66.4099 35.5627V67.3759H13.5901V14.559H41.609V0.968872H13.0331C9.5777 0.972755 6.26493 2.34708 3.82159 4.79034C1.37825 7.23359 0.0038801 10.5462 0 14.0015V67.9229C0.00249806 71.3796 1.37609 74.6941 3.81943 77.1394C6.26277 79.5846 9.57631 80.9608 13.0331 80.9661ZM24.4582 35.5756L30.1072 31.2169L39.4346 43.299L87.5439 6.16313L91.9033 11.813L80 20.998V20.9944L71.0228 27.9252L38.1408 53.2981L24.4582 35.5756ZM3.22858 14.0015C3.23153 11.4022 4.26545 8.91018 6.10352 7.07217C7.94158 5.23417 10.4337 4.20029 13.0331 4.19734H38.3805V11.3306H13.0331C12.3249 11.3312 11.6458 11.6128 11.1449 12.1136C10.6441 12.6143 10.3623 13.2933 10.3615 14.0015V67.9229C10.3609 68.6325 10.6419 69.3134 11.1428 69.8161C11.6436 70.3188 12.3235 70.6023 13.0331 70.6044H66.9564C67.6674 70.6036 68.3491 70.3209 68.8519 69.8182C69.3547 69.3155 69.6376 68.6339 69.6385 67.9229V33.0723L72.5004 30.8631L76.7714 27.5673V67.9229C76.7686 70.525 75.7336 73.0198 73.8935 74.8598C72.0535 76.6998 69.5586 77.7347 66.9564 77.7376H13.0331C10.4323 77.7332 7.93941 76.6975 6.10134 74.8575C4.26327 73.0175 3.23013 70.5236 3.22857 67.9229L3.22858 14.0015Z" fill="white"/>
</svg>
