<svg width="83" height="81" viewBox="0 0 83 81" fill="none" xmlns="http://www.w3.org/2000/svg">
<path d="M32.1543 28.894C32.1543 28.1706 31.463 27.6079 30.9324 27.6079C30.8038 27.6079 30.643 27.6401 30.5466 27.7044L23.8103 32.1094C23.4244 32.3666 23.2476 32.8328 23.2476 33.1543C23.2476 33.4759 23.4244 33.926 23.8103 34.1832L30.5466 38.5882C30.643 38.6686 30.8038 38.6847 30.9324 38.6847C31.463 38.6847 32.1543 38.1542 32.1543 37.4307C32.1543 37.0931 31.9935 36.8198 31.7684 36.6912L26.3987 33.1543L31.7684 29.6175C32.0096 29.4889 32.1543 29.1995 32.1543 28.894Z" fill="white"/>
<path d="M45.3215 20.55C44.9839 20.55 44.7106 20.6787 44.5498 21.0163L35.1286 39.842C35.0804 39.9706 35.0482 40.0993 35.0482 40.2279C35.0482 40.6941 35.4501 41.1764 36.045 41.1764C36.3987 41.1764 36.7363 40.9995 36.8971 40.6941L46.3022 21.9326C46.3826 21.804 46.3987 21.6754 46.3987 21.5146C46.3987 20.9359 45.836 20.55 45.3215 20.55Z" fill="white"/>
<path d="M57.6205 32.1252L50.8843 27.7202C50.7878 27.6399 50.6592 27.6238 50.5306 27.6238C49.9679 27.6238 49.3087 28.1865 49.3087 28.9099C49.3087 29.2154 49.4695 29.5047 49.6624 29.6494L55.0643 33.1863L49.6624 36.7232C49.4534 36.8518 49.3087 37.1251 49.3087 37.4627C49.3087 38.1861 49.9679 38.7167 50.5306 38.7167C50.6592 38.7167 50.7878 38.6845 50.8843 38.6202L57.6205 34.2152C58.0225 33.958 58.1832 33.5239 58.1832 33.1863C58.1832 32.8487 58.0064 32.3825 57.6205 32.1252Z" fill="white"/>
<path d="M78.0065 0.968872H4.30868C1.92926 0.968872 0 2.89806 0 5.2774V59.8736C0 62.2529 1.92926 64.1821 4.30868 64.1821H32.9904C32.1222 67.0116 30.9003 69.6642 29.3569 72.1239H26.8971C23.537 72.1239 20.8039 74.857 20.8039 78.217C20.8039 79.7282 22.0418 80.9661 23.5531 80.9661H58.7942C60.3055 80.9661 61.5434 79.7442 61.5434 78.217C61.5434 74.857 58.8103 72.1239 55.4502 72.1239H52.9904C51.447 69.6642 50.2251 67.0116 49.3569 64.1821H78.0386C80.418 64.1821 82.3473 62.2529 82.3473 59.8736V5.2774C82.3151 2.89806 80.3859 0.968872 78.0065 0.968872ZM55.418 74.5354C57.4598 74.5354 59.0997 76.1913 59.0997 78.217C59.0997 78.3938 58.955 78.5546 58.7621 78.5546H23.537C23.3601 78.5546 23.1994 78.4099 23.1994 78.217C23.1994 76.1752 24.8553 74.5354 26.881 74.5354H55.418ZM50.1447 72.1239H32.1704C33.5852 69.6481 34.6945 66.9794 35.4984 64.1821H46.8167C47.6206 66.9794 48.7299 69.6481 50.1447 72.1239ZM79.9036 59.8736C79.9036 60.9185 79.0515 61.7706 78.0065 61.7706H4.30868C3.26367 61.7706 2.41158 60.9185 2.41158 59.8736V55.2274H79.9036V59.8736ZM79.9036 52.8159H2.41158V5.2774C2.41158 4.23242 3.26367 3.38036 4.30868 3.38036H78.0065C79.0515 3.38036 79.9036 4.23242 79.9036 5.2774V52.8159Z" fill="white"/>
<path d="M76.6077 5.6311H5.70737C5.04821 5.6311 4.50159 6.17771 4.50159 6.83685V30.4212V35.9355V49.1987C4.50159 49.8579 5.04821 50.4045 5.70737 50.4045H76.6077C77.2669 50.4045 77.8135 49.8579 77.8135 49.1987V39.2152V30.4373V6.83685C77.8135 6.17771 77.2669 5.6311 76.6077 5.6311ZM6.91316 8.0426H75.4019V13.5247H6.91316V8.0426ZM75.4019 47.993H6.91316V35.9355V30.4212V15.9201H75.4019V30.4212V39.1991V47.993Z" fill="white"/>
<path d="M56.8489 9.66626C56.2219 9.66626 55.7235 10.1647 55.7235 10.7917C55.7235 11.4187 56.2219 11.9171 56.8489 11.9171C57.4759 11.9171 57.9743 11.4187 57.9743 10.7917C57.9582 10.1647 57.4598 9.66626 56.8489 9.66626Z" fill="white"/>
<path d="M63.0064 9.66626C62.3794 9.66626 61.881 10.1647 61.881 10.7917C61.881 11.4187 62.3794 11.9171 63.0064 11.9171C63.6334 11.9171 64.1318 11.4187 64.1318 10.7917C64.1318 10.1647 63.6173 9.66626 63.0064 9.66626Z" fill="white"/>
<path d="M69.164 9.66626C68.537 9.66626 68.0386 10.1647 68.0386 10.7917C68.0386 11.4187 68.537 11.9171 69.164 11.9171C69.791 11.9171 70.2894 11.4187 70.2894 10.7917C70.2894 10.1647 69.7749 9.66626 69.164 9.66626Z" fill="white"/>
</svg>
