<svg width="121" height="90" viewBox="0 0 121 90" fill="none" xmlns="http://www.w3.org/2000/svg">
<path d="M109.496 0H10.6825C4.80712 0 0 4.80712 0 10.6825V79.3175C0 85.1929 4.80712 90 10.6825 90H109.496C115.371 90 120.178 85.1929 120.178 79.3175V10.6825C120.178 4.80712 115.371 0 109.496 0ZM10.6825 4.273H109.496C113.101 4.273 115.905 7.21068 115.905 10.6825V17.092H4.273V10.6825C4.273 7.07715 7.21068 4.273 10.6825 4.273ZM109.496 85.727H10.6825C7.07715 85.727 4.273 82.7893 4.273 79.3175V21.365H115.905V79.3175C115.905 82.9229 112.967 85.727 109.496 85.727Z" fill="#3298DC"/>
<path d="M51.6766 39.7922C50.8754 38.991 49.5401 38.991 48.6054 39.7922L39.1247 49.4065C38.7241 49.8071 38.457 50.3412 38.457 50.8753C38.457 51.4095 38.7241 51.9436 39.1247 52.3442L48.6054 61.5578C49.006 61.9584 49.5401 62.2255 50.0742 62.2255C50.6084 62.2255 51.1425 61.9584 51.6766 61.5578C52.4778 60.7566 52.4778 59.2878 51.6766 58.4866L43.7983 50.7418L51.6766 42.7299C52.4778 42.0623 52.4778 40.727 51.6766 39.7922Z" fill="#3298DC"/>
<path d="M71.5726 39.9258C70.7714 39.1247 69.4361 39.1247 68.5014 39.9258C67.7002 40.727 67.7002 42.0623 68.5014 42.9971L76.3797 51.0089L68.5014 58.7537C67.7002 59.5549 67.7002 60.8902 68.5014 61.825C68.902 62.2255 69.4361 62.4926 70.1038 62.4926C70.6379 62.4926 71.172 62.2255 71.5726 61.825L81.0533 52.6113C81.4539 52.2107 81.721 51.6766 81.721 51.1425C81.721 50.6083 81.4539 50.0742 81.0533 49.6736L71.5726 39.9258Z" fill="#3298DC"/>
<path d="M64.0949 39.3917C63.0267 38.9911 61.6914 39.6587 61.4243 40.727L54.7478 59.4214C54.3472 60.4896 55.0148 61.8249 56.0831 62.092C56.3501 62.2255 56.6172 62.2255 56.7507 62.2255C57.6854 62.2255 58.4866 61.6914 58.7537 60.7567L65.4303 42.0623C65.8308 40.9941 65.1632 39.7923 64.0949 39.3917Z" fill="#3298DC"/>
<path d="M75.1781 12.819H79.4511C80.6529 12.819 81.5876 11.8843 81.5876 10.6825C81.5876 9.48074 80.6529 8.54602 79.4511 8.54602H75.1781C73.9763 8.54602 73.0416 9.48074 73.0416 10.6825C72.9081 11.8843 73.9763 12.819 75.1781 12.819Z" fill="#3298DC"/>
<path d="M87.9971 12.819H92.2701C93.4719 12.819 94.4066 11.8843 94.4066 10.6825C94.4066 9.48074 93.4719 8.54602 92.2701 8.54602H87.9971C86.7953 8.54602 85.8606 9.48074 85.8606 10.6825C85.8606 11.8843 86.7953 12.819 87.9971 12.819Z" fill="#3298DC"/>
<path d="M100.816 12.819H105.089C106.291 12.819 107.226 11.8843 107.226 10.6825C107.226 9.48074 106.291 8.54602 105.089 8.54602H100.816C99.6143 8.54602 98.6796 9.48074 98.6796 10.6825C98.6796 11.8843 99.6143 12.819 100.816 12.819Z" fill="#3298DC"/>
</svg>
