<svg width="64" height="81" viewBox="0 0 64 81" fill="none" xmlns="http://www.w3.org/2000/svg">
<path d="M63.7267 19.9744C63.7267 19.726 63.6025 19.6018 63.4783 19.4775C63.4783 19.4775 63.4783 19.3533 63.3541 19.3533C63.2298 19.2291 63.1056 18.9807 62.9814 18.8564L44.7205 1.34153C44.5963 1.21731 44.4721 1.0931 44.3478 1.0931H44.2236C44.0994 0.96888 43.8509 0.968872 43.7267 0.968872C43.7267 0.968872 43.7267 0.968872 43.6025 0.968872C43.4783 0.968872 43.3541 0.968872 43.2298 0.968872H9.81368C4.47206 0.968872 0 5.31654 0 10.7822V71.1527C0 76.4942 4.34784 80.9661 9.81368 80.9661H53.7888C59.1305 80.9661 63.6025 76.6184 63.6025 71.1527V20.7197C63.8509 20.3471 63.851 20.0986 63.7267 19.9744ZM45.5901 8.04937L56.2733 18.2353H51.0559C48.0746 18.2353 45.5901 15.751 45.5901 12.7697V8.04937ZM54.0373 76.37H10.0621C7.08075 76.37 4.59627 73.8856 4.59627 70.9043V10.5338C4.59627 7.55249 7.08075 5.06811 10.0621 5.06811H41.2422V12.8939C41.2422 18.2354 45.5901 22.7072 51.0559 22.7072H59.5031V71.0285C59.5031 73.8856 57.0187 76.37 54.0373 76.37ZM49.441 46.3089C49.441 47.5511 48.4472 48.4206 47.3292 48.4206H17.1429C15.9006 48.4206 14.9068 47.4269 14.9068 46.3089C14.9068 45.0667 15.9006 44.1972 17.1429 44.1972H47.3292C48.4472 44.1972 49.441 45.1909 49.441 46.3089ZM14.6584 32.8932C14.6584 31.651 15.6522 30.7815 16.7702 30.7815H46.9565C48.1988 30.7815 49.0683 31.7752 49.0683 32.8932C49.0683 34.0112 48.0746 35.0049 46.9565 35.0049H16.7702C15.6522 35.0049 14.6584 34.0112 14.6584 32.8932ZM49.441 59.8488C49.441 61.091 48.4472 61.9605 47.3292 61.9605H17.1429C15.9006 61.9605 14.9068 60.9668 14.9068 59.8488C14.9068 58.6066 15.9006 57.7371 17.1429 57.7371H47.3292C48.4472 57.7371 49.441 58.6066 49.441 59.8488Z" fill="white"/>
</svg>
