<svg width="82" height="90" viewBox="0 0 82 90" fill="none" xmlns="http://www.w3.org/2000/svg">
<path d="M16.7219 37.0029V1.73148C16.7219 0.776814 17.4988 0 18.4534 0H62.1287C62.6071 0 63.0384 0.194203 63.3532 0.506973L81.4919 18.6456C81.8292 18.9829 81.9988 19.4265 81.9988 19.8701V88.2685C81.9988 89.2232 81.222 90 80.2673 90H18.4534C17.4988 90 16.7219 89.2232 16.7219 88.2685V72.7895H1.73148C0.776814 72.7895 0 72.0127 0 71.058V38.7323C0 37.7777 0.776814 37.0009 1.73148 37.0009H16.7219V37.0029ZM63.8623 5.91401L63.897 19.0994H77.0477L63.8623 5.91401ZM78.5359 22.5623H62.1778C61.2272 22.5542 60.4545 21.7814 60.4545 20.8309L60.4095 3.46295H20.1828V37.0029H55.2539C56.2086 37.0029 56.9854 37.7797 56.9854 38.7344V71.0601C56.9854 72.0147 56.2086 72.7915 55.2539 72.7915H20.1828V86.5391H78.5338V22.5644L78.5359 22.5623ZM53.5225 40.4659H3.46295V69.3286H53.5225V40.4659Z" fill="#3298DC"/>
<path fill-rule="evenodd" clip-rule="evenodd" d="M40.1102 50.0044V53.2772H46.8378V56.1494H40.1102V62.6562H37.0213V47.1322H47.8783V50.0044H40.1102Z" fill="#3298DC"/>
<path fill-rule="evenodd" clip-rule="evenodd" d="M22.4622 62.6562V47.1322H27.9959C28.8525 47.1322 29.8439 47.1547 30.6821 47.353C31.5509 47.5533 32.3502 47.9233 33.033 48.5018C33.8936 49.2337 34.5028 50.1434 34.9034 51.1962C35.3389 52.3491 35.5044 53.59 35.5044 54.8165C35.5044 55.8448 35.3941 56.8935 35.0976 57.8809C34.8585 58.6781 34.5232 59.4692 34.0326 60.1479C33.6299 60.704 33.1474 61.2089 32.573 61.5912C31.9965 61.9734 31.3485 62.2331 30.6759 62.3966C29.8787 62.5908 29.0446 62.6562 28.2269 62.6562H22.4622ZM25.5551 59.784H28.0143C28.6521 59.784 29.4412 59.7513 30.0524 59.551C30.4347 59.4263 30.815 59.2403 31.0991 58.952C31.5325 58.5187 31.8146 57.9422 32.0047 57.3677C32.2705 56.55 32.3502 55.6424 32.3502 54.7859C32.3502 53.774 32.2357 52.5167 31.7001 51.6336C31.3383 51.0408 30.862 50.5134 30.2017 50.2579C29.6048 50.0248 28.601 50.0044 27.9653 50.0044H25.5551V59.784Z" fill="#3298DC"/>
<path fill-rule="evenodd" clip-rule="evenodd" d="M12.2001 56.8117V62.6562H9.10712V47.1322H15.1152C15.8572 47.1322 16.6627 47.1506 17.3965 47.2773C18.1079 47.4 18.8071 47.6269 19.406 48.0419C19.9989 48.4487 20.4384 49.0088 20.7532 49.6507C21.0966 50.3437 21.2479 51.0919 21.2479 51.8646C21.2479 53.1914 20.8268 54.377 19.9273 55.3542C18.803 56.5746 16.8487 56.8117 15.2807 56.8117H12.2001ZM12.2001 53.9375H15.3094C15.9717 53.9375 17.002 53.868 17.5274 53.4039C17.9607 53.0176 18.0977 52.4881 18.0977 51.9219C18.0977 51.4905 18.0057 51.0796 17.7522 50.726C17.5315 50.4194 17.2514 50.2088 16.8855 50.1107C16.4623 49.9962 15.71 50.0044 15.2705 50.0044H12.2001V53.9375Z" fill="#3298DC"/>
</svg>
