<svg width="96" height="90" viewBox="0 0 96 90" fill="none" xmlns="http://www.w3.org/2000/svg">
<path d="M27.9013 15.4202H52.1113C52.5409 15.4202 52.953 15.2495 53.2568 14.9457C53.5606 14.6419 53.7313 14.2298 53.7313 13.8002C53.7313 13.3705 53.5606 12.9585 53.2568 12.6547C52.953 12.3509 52.5409 12.1802 52.1113 12.1802H27.9463C27.5166 12.1802 27.1046 12.3509 26.8007 12.6547C26.4969 12.9585 26.3263 13.3705 26.3263 13.8002C26.3263 14.2298 26.4969 14.6419 26.8007 14.9457C27.1046 15.2495 27.5166 15.4202 27.9463 15.4202H27.9013Z" fill="#3298DC"/>
<path d="M27.9463 23.5501H67.8763C68.3059 23.5501 68.718 23.3794 69.0218 23.0756C69.3256 22.7718 69.4963 22.3597 69.4963 21.9301C69.4963 21.5004 69.3256 21.0884 69.0218 20.7845C68.718 20.4807 68.3059 20.3101 67.8763 20.3101H27.9463C27.5166 20.3101 27.1046 20.4807 26.8007 20.7845C26.4969 21.0884 26.3263 21.5004 26.3263 21.9301C26.3263 22.3597 26.4969 22.7718 26.8007 23.0756C27.1046 23.3794 27.5166 23.5501 27.9463 23.5501Z" fill="#3298DC"/>
<path d="M27.9463 31.68H67.8763C68.0942 31.6801 68.3098 31.6363 68.5104 31.5512C68.711 31.466 68.8923 31.3413 69.0435 31.1845C69.1948 31.0276 69.3128 30.8419 69.3906 30.6383C69.4684 30.4348 69.5043 30.2177 69.4963 30C69.499 29.7741 69.4536 29.5503 69.3631 29.3434C69.2726 29.1365 69.139 28.9512 68.9713 28.8C68.67 28.5306 68.2804 28.3811 67.8763 28.38H27.9463C27.733 28.378 27.5214 28.4185 27.324 28.4992C27.1265 28.5799 26.9471 28.6991 26.7963 28.85C26.6455 29.0008 26.5262 29.1802 26.4455 29.3776C26.3648 29.5751 26.3243 29.7867 26.3263 30C26.3182 30.2177 26.3541 30.4348 26.4319 30.6383C26.5097 30.8419 26.6278 31.0276 26.779 31.1845C26.9303 31.3413 27.1116 31.466 27.3122 31.5512C27.5127 31.6363 27.7284 31.6801 27.9463 31.68Z" fill="#3298DC"/>
<path d="M69.4963 38.1898C69.4963 37.7602 69.3256 37.3481 69.0218 37.0443C68.718 36.7405 68.3059 36.5698 67.8763 36.5698H27.9463C27.5166 36.5698 27.1046 36.7405 26.8007 37.0443C26.4969 37.3481 26.3263 37.7602 26.3263 38.1898C26.3263 38.6195 26.4969 39.0315 26.8007 39.3353C27.1046 39.6391 27.5166 39.8098 27.9463 39.8098H67.8763C68.3059 39.8098 68.718 39.6391 69.0218 39.3353C69.3256 39.0315 69.4963 38.6195 69.4963 38.1898Z" fill="#3298DC"/>
<path d="M94.0213 25.5C93.888 25.3129 93.7135 25.159 93.5113 25.05L80.3863 17.55V12.645C80.3227 12.2376 80.1019 11.8714 79.7713 11.625L77.1463 9.345L70.2012 3.3L66.9013 0.435C66.6206 0.16897 66.2527 0.0143217 65.8663 0H20.0563C18.831 0 17.6558 0.486749 16.7894 1.35317C15.923 2.21958 15.4363 3.3947 15.4363 4.62V17.355L2.89625 24.54C2.04891 24.8477 1.31666 25.4085 0.798802 26.1464C0.280939 26.8842 0.00250698 27.7635 0.00125453 28.665V85.5C-0.0127479 86.0859 0.090587 86.6688 0.305179 87.2142C0.51977 87.7596 0.841284 88.2565 1.2508 88.6758C1.66032 89.0951 2.14956 89.4283 2.68975 89.6557C3.22994 89.8831 3.81015 90.0002 4.39625 90H91.0062C91.5924 90.0002 92.1726 89.8831 92.7128 89.6557C93.2529 89.4283 93.7422 89.0951 94.1517 88.6758C94.5612 88.2565 94.8827 87.7596 95.0973 87.2142C95.3119 86.6688 95.4153 86.0859 95.4013 85.5V28.665C95.3986 28.0713 95.2748 27.4844 95.0375 26.9403C94.8002 26.3961 94.4544 25.906 94.0213 25.5ZM85.6212 24.3L90.5563 27L89.9413 27.45L80.3863 34.245V21.285L85.6212 24.3ZM74.4913 11.295H67.4113V5.16L74.4913 11.295ZM18.6763 27.51V4.68C18.6763 4.314 18.8216 3.96299 19.0804 3.70419C19.3392 3.44539 19.6903 3.3 20.0563 3.3H64.2012V12.9C64.2012 13.3257 64.3704 13.7339 64.6713 14.0349C64.9723 14.3359 65.3806 14.505 65.8063 14.505H77.1463V36.615L55.9813 51.69L53.2663 53.61L52.2763 54.315L47.9563 57.315L43.6363 54.315L42.6463 53.61L39.9463 51.69L18.6763 36.555V27.51ZM9.93126 24.27L15.4363 21.135V34.245L5.97125 27.51L5.20625 27L9.93126 24.27ZM3.24125 84.9V29.535L15.4363 38.22L18.6763 40.5L37.4713 54L37.0363 54.39L33.4513 57.57L3.24125 84.9ZM6.09126 86.7L38.2813 57.57L40.2013 55.845L42.6163 57.57L47.0263 60.705C47.3025 60.9007 47.6327 61.0058 47.9713 61.0058C48.3098 61.0058 48.64 60.9007 48.9163 60.705L53.3263 57.57L55.7413 55.845L57.6463 57.57L89.8363 86.7H6.09126ZM92.1613 84.435L62.4613 57.57L58.8763 54.315L58.4413 54L77.1463 40.68L80.3863 38.37L92.1613 29.985V84.435Z" fill="#3298DC"/>
</svg>
