<svg width="96" height="91" viewBox="0 0 96 91" fill="none" xmlns="http://www.w3.org/2000/svg">
<path d="M27.9013 15.4509H52.1113C52.5409 15.4509 52.953 15.2803 53.2568 14.9765C53.5606 14.6726 53.7313 14.2606 53.7313 13.8309C53.7313 13.4013 53.5606 12.9892 53.2568 12.6854C52.953 12.3816 52.5409 12.2109 52.1113 12.2109H27.9463C27.5166 12.2109 27.1046 12.3816 26.8007 12.6854C26.4969 12.9892 26.3263 13.4013 26.3263 13.8309C26.3263 14.2606 26.4969 14.6726 26.8007 14.9765C27.1046 15.2803 27.5166 15.4509 27.9463 15.4509H27.9013Z" fill="url(#paint0_linear)"/>
<path d="M27.9463 23.5803H67.8763C68.3059 23.5803 68.718 23.4097 69.0218 23.1058C69.3256 22.802 69.4963 22.39 69.4963 21.9603C69.4963 21.5307 69.3256 21.1186 69.0218 20.8148C68.718 20.511 68.3059 20.3403 67.8763 20.3403H27.9463C27.5166 20.3403 27.1046 20.511 26.8007 20.8148C26.4969 21.1186 26.3263 21.5307 26.3263 21.9603C26.3263 22.39 26.4969 22.802 26.8007 23.1058C27.1046 23.4097 27.5166 23.5803 27.9463 23.5803Z" fill="url(#paint1_linear)"/>
<path d="M27.9463 31.71H67.8763C68.0942 31.7101 68.3098 31.6663 68.5104 31.5812C68.711 31.4961 68.8923 31.3713 69.0435 31.2145C69.1948 31.0576 69.3128 30.8719 69.3906 30.6684C69.4684 30.4648 69.5043 30.2477 69.4963 30.03C69.499 29.8041 69.4536 29.5803 69.3631 29.3734C69.2726 29.1665 69.139 28.9812 68.9713 28.83C68.67 28.5606 68.2804 28.4112 67.8763 28.41H27.9463C27.733 28.408 27.5214 28.4485 27.324 28.5292C27.1265 28.6099 26.9471 28.7292 26.7963 28.88C26.6455 29.0308 26.5262 29.2102 26.4455 29.4077C26.3648 29.6051 26.3243 29.8167 26.3263 30.03C26.3182 30.2477 26.3541 30.4648 26.4319 30.6684C26.5097 30.8719 26.6278 31.0576 26.779 31.2145C26.9303 31.3713 27.1116 31.4961 27.3122 31.5812C27.5127 31.6663 27.7284 31.7101 27.9463 31.71Z" fill="url(#paint2_linear)"/>
<path d="M69.4963 38.2196C69.4963 37.79 69.3256 37.3779 69.0218 37.0741C68.718 36.7703 68.3059 36.5996 67.8763 36.5996H27.9463C27.5166 36.5996 27.1046 36.7703 26.8007 37.0741C26.4969 37.3779 26.3263 37.79 26.3263 38.2196C26.3263 38.6493 26.4969 39.0613 26.8007 39.3651C27.1046 39.6689 27.5166 39.8396 27.9463 39.8396H67.8763C68.3059 39.8396 68.718 39.6689 69.0218 39.3651C69.3256 39.0613 69.4963 38.6493 69.4963 38.2196Z" fill="url(#paint3_linear)"/>
<path d="M94.0213 25.53C93.888 25.3429 93.7135 25.189 93.5113 25.08L80.3863 17.5803V12.6755C80.3227 12.2681 80.1019 11.9019 79.7713 11.6555L77.1463 9.37562L70.2013 3.33087L66.9013 0.465988C66.6206 0.199969 66.2527 0.045327 65.8663 0.0310059H20.0563C18.831 0.0310059 17.6558 0.517735 16.7894 1.38412C15.923 2.2505 15.4363 3.42557 15.4363 4.65082V17.3853L2.89626 24.57C2.04891 24.8777 1.31666 25.4384 0.798802 26.1763C0.280939 26.9142 0.00250698 27.7934 0.00125453 28.6948V85.5275C-0.0127479 86.1134 0.090587 86.6962 0.305179 87.2416C0.51977 87.787 0.841284 88.284 1.2508 88.7032C1.66032 89.1225 2.14956 89.4557 2.68975 89.6831C3.22994 89.9105 3.81015 90.0275 4.39626 90.0273H91.0063C91.5924 90.0275 92.1726 89.9105 92.7128 89.6831C93.253 89.4557 93.7422 89.1225 94.1517 88.7032C94.5612 88.284 94.8828 87.787 95.0973 87.2416C95.3119 86.6962 95.4153 86.1134 95.4013 85.5275V28.6948C95.3986 28.1012 95.2748 27.5143 95.0375 26.9702C94.8002 26.426 94.4544 25.9359 94.0213 25.53ZM85.6213 24.33L90.5563 27.0299L89.9413 27.4799L80.3863 34.2746V21.3151L85.6213 24.33ZM74.4913 11.3255H67.4113V5.1908L74.4913 11.3255ZM18.6763 27.5399V4.71082C18.6763 4.34483 18.8217 3.99384 19.0805 3.73505C19.3393 3.47626 19.6903 3.33087 20.0563 3.33087H64.2013V12.9305C64.2013 13.3561 64.3704 13.7644 64.6714 14.0653C64.9724 14.3663 65.3806 14.5354 65.8063 14.5354H77.1463V36.6445L55.9813 51.7189L53.2663 53.6388L52.2763 54.3438L47.9563 57.3437L43.6363 54.3438L42.6463 53.6388L39.9463 51.7189L18.6763 36.5845V27.5399ZM9.93126 24.3L15.4363 21.1651V34.2746L5.97126 27.5399L5.20626 27.0299L9.93126 24.3ZM3.24125 84.9276V29.5648L15.4363 38.2495L18.6763 40.5294L37.4713 54.0288L37.0363 54.4188L33.4513 57.5987L3.24125 84.9276ZM6.09126 86.7275L38.2813 57.5987L40.2013 55.8737L42.6163 57.5987L47.0263 60.7335C47.3025 60.9292 47.6327 61.0343 47.9713 61.0343C48.3098 61.0343 48.64 60.9292 48.9163 60.7335L53.3263 57.5987L55.7413 55.8737L57.6463 57.5987L89.8363 86.7275H6.09126ZM92.1613 84.4626L62.4613 57.5987L58.8763 54.3438L58.4413 54.0288L77.1463 40.7094L80.3863 38.3994L92.1613 30.0148V84.4626Z" fill="url(#paint4_linear)"/>
<defs>
<linearGradient id="paint0_linear" x1="40.0288" y1="12.2109" x2="40.0288" y2="15.4509" gradientUnits="userSpaceOnUse">
<stop stop-color="#50D5B7"/>
<stop offset="1" stop-color="#28C76F"/>
</linearGradient>
<linearGradient id="paint1_linear" x1="47.9113" y1="20.3403" x2="47.9113" y2="23.5803" gradientUnits="userSpaceOnUse">
<stop stop-color="#50D5B7"/>
<stop offset="1" stop-color="#28C76F"/>
</linearGradient>
<linearGradient id="paint2_linear" x1="47.9113" y1="28.4099" x2="47.9113" y2="31.71" gradientUnits="userSpaceOnUse">
<stop stop-color="#50D5B7"/>
<stop offset="1" stop-color="#28C76F"/>
</linearGradient>
<linearGradient id="paint3_linear" x1="47.9113" y1="36.5996" x2="47.9113" y2="39.8396" gradientUnits="userSpaceOnUse">
<stop stop-color="#50D5B7"/>
<stop offset="1" stop-color="#28C76F"/>
</linearGradient>
<linearGradient id="paint4_linear" x1="47.7013" y1="0.0310059" x2="47.7013" y2="90.0273" gradientUnits="userSpaceOnUse">
<stop stop-color="#50D5B7"/>
<stop offset="1" stop-color="#28C76F"/>
</linearGradient>
</defs>
</svg>
