<svg width="42" height="42" viewBox="0 0 42 42" fill="none" xmlns="http://www.w3.org/2000/svg">
<path d="M21 0C9.4206 0 0 9.4206 0 21C0 32.5794 9.4206 42 21 42C32.5794 42 42 32.5794 42 21C42 9.4206 32.5794 0 21 0ZM21 2.1C31.4218 2.1 39.9 10.5782 39.9 21C39.9 25.3848 38.3948 29.422 35.8801 32.6319C34.0363 29.1286 30.9802 26.3566 27.3299 24.864C29.2913 23.0926 30.45 20.5537 30.45 17.85C30.45 12.6394 26.2106 8.4 21 8.4C15.7894 8.4 11.55 12.6394 11.55 17.85C11.55 20.5543 12.7087 23.0932 14.6701 24.864C11.0239 26.3571 7.9632 29.1322 6.11992 32.6324C3.60517 29.4226 2.1 25.3848 2.1 21C2.1 10.5782 10.5782 2.1 21 2.1ZM21 39.9C15.7789 39.9 11.046 37.7716 7.62195 34.3371C9.43477 30.3665 12.9995 27.3399 17.2142 26.2195C17.6285 26.1093 17.9345 25.7586 17.9865 25.3333C18.039 24.9076 17.8274 24.4933 17.452 24.286C15.1069 22.9897 13.65 20.5233 13.65 17.85C13.65 13.797 16.947 10.5 21 10.5C25.053 10.5 28.35 13.797 28.35 17.85C28.35 20.5233 26.8931 22.9897 24.5479 24.286C24.1726 24.4933 23.961 24.9081 24.0135 25.3333C24.066 25.7586 24.3715 26.1098 24.7858 26.2195C29.0078 27.3415 32.5631 30.3639 34.377 34.3376C30.9535 37.7716 26.2206 39.9 21 39.9Z" fill="url(#paint0_linear)"/>
<defs>
<linearGradient id="paint0_linear" x1="21" y1="0" x2="21" y2="42" gradientUnits="userSpaceOnUse">
<stop stop-color="#50D5B7"/>
<stop offset="1" stop-color="#28C76F"/>
</linearGradient>
</defs>
</svg>
