<svg width="42" height="42" viewBox="0 0 42 42" fill="none" xmlns="http://www.w3.org/2000/svg">
<path d="M38.1996 20.2834C34.9057 17.0519 30.2812 15.9905 26.0491 16.9702L9.48701 0.722141C9.2941 0.528959 9.02684 0.408987 8.75174 0.392046L1.17479 0.000828338C0.537496 -0.025397 -0.0499115 0.575349 0.00336662 1.19893L0.800932 10.5884C0.846895 11.1304 1.35569 11.5959 1.91003 11.6031H5.57391L5.57391 15.1975C5.57729 15.7727 6.10916 16.2945 6.69549 16.2978H10.3593L10.3593 19.8922C10.3577 20.181 10.4768 20.4688 10.6834 20.6746L16.4907 26.3719C15.5021 30.5174 16.5677 35.0545 19.8554 38.2798C24.9116 43.2401 33.1435 43.2401 38.1996 38.2798C43.4573 33.3105 43.0726 24.6026 38.1996 20.2834ZM36.6045 21.8483C40.7985 25.9629 40.7985 32.6004 36.6045 36.7149C32.4104 40.8295 25.6446 40.8295 21.4506 36.7149C18.5679 33.8868 17.6801 29.8493 18.7588 26.2741C18.8693 25.8964 18.7554 25.4638 18.4722 25.186L12.615 19.4398V15.1853C12.6116 14.6101 12.0797 14.0882 11.4934 14.0849L7.82955 14.085L7.82955 10.4906C7.82616 9.91534 7.29429 9.39352 6.70797 9.39022L2.94441 9.39026L2.34624 2.27482L8.19095 2.58047L24.8527 18.9263C25.1408 19.2043 25.5881 19.3115 25.9743 19.1953C30.1741 18.0396 34.084 19.5508 36.6045 21.8483ZM35.0093 28.8904C33.2568 27.1711 30.3812 27.1712 28.6287 28.8904C26.8763 30.6097 26.8763 33.4307 28.6287 35.15C30.3812 36.8693 33.2568 36.8693 35.0093 35.15C36.7618 33.4307 36.7618 30.6097 35.0093 28.8904ZM33.4142 30.4553C34.3046 31.3288 34.3046 32.7116 33.4142 33.5851C32.5238 34.4586 31.1143 34.4586 30.2239 33.5851C29.3335 32.7115 29.3335 31.3288 30.2239 30.4553C31.1143 29.5818 32.5238 29.5818 33.4142 30.4553Z" fill="#3298DC"/>
</svg>
