<svg width="31" height="50" viewBox="0 0 31 50" fill="none" xmlns="http://www.w3.org/2000/svg">
<path d="M29.0112 27.5053L7.11486 48.8292C3.39391 52.5501 -2.61686 46.5394 1.2472 42.8184L19.4226 24.9292L1.2472 7.04004C-2.61686 3.46221 3.39391 -2.54856 7.11486 1.17239L29.0112 22.4963C30.4423 23.7843 30.4423 26.2172 29.0112 27.5053ZM23.0004 24.9292L2.82145 44.6789C1.39032 45.9669 4.10947 48.5429 5.54061 47.1118L27.2939 25.7879C27.7232 25.3586 27.7232 24.643 27.2939 24.2137L5.54061 2.88975C4.10947 1.45862 1.39032 4.03466 2.82145 5.32268L23.0004 24.9292Z" fill="url(#paint0_linear)"/>
<defs>
<linearGradient id="paint0_linear" x1="15.0423" y1="0" x2="15.0423" y2="50" gradientUnits="userSpaceOnUse">
<stop stop-color="#50D5B7"/>
<stop offset="1" stop-color="#28C76F"/>
</linearGradient>
</defs>
</svg>
