<svg width="31" height="50" viewBox="0 0 31 50" fill="none" xmlns="http://www.w3.org/2000/svg">
<path d="M1.07335 22.4947L22.9697 1.17083C26.6907 -2.55011 32.7014 3.46065 28.8374 7.1816L10.662 25.0708L28.8374 42.96C32.7014 46.5378 26.6907 52.5486 22.9697 48.8276L1.07335 27.5037C-0.357782 26.2157 -0.357782 23.7828 1.07335 22.4947ZM7.08412 25.0708L27.2631 5.32112C28.6943 4.0331 25.9751 1.45706 24.544 2.88819L2.79071 24.2121C2.36137 24.6414 2.36137 25.357 2.79071 25.7863L24.544 47.1102C25.9751 48.5414 28.6942 45.9653 27.2631 44.6773L7.08412 25.0708Z" fill="url(#paint0_linear)"/>
<defs>
<linearGradient id="paint0_linear" x1="15.0423" y1="50" x2="15.0423" y2="-1.31504e-06" gradientUnits="userSpaceOnUse">
<stop stop-color="#50D5B7"/>
<stop offset="1" stop-color="#28C76F"/>
</linearGradient>
</defs>
</svg>
