<svg width="91" height="91" viewBox="0 0 91 91" fill="none" xmlns="http://www.w3.org/2000/svg">
<path d="M78.6137 74.9039C85.9363 66.6944 89.9888 56.0816 90.0014 45.081C90.0141 34.0805 85.986 23.4584 78.6822 15.2321C78.5979 15.1129 78.5029 15.0015 78.3985 14.8995C74.1851 10.2196 69.0351 6.47755 63.2823 3.9161C57.5296 1.35466 51.3026 0.0310059 45.0053 0.0310059C38.7081 0.0310059 32.4811 1.35466 26.7284 3.9161C20.9756 6.47755 15.8256 10.2196 11.6122 14.8995C11.5021 14.9989 11.4036 15.1105 11.3187 15.2321C4.02707 23.445 0 34.0464 0 45.0289C0 56.0114 4.02707 66.6127 11.3187 74.8256C11.403 74.9449 11.498 75.0562 11.6024 75.1582C15.8167 79.8384 20.9676 83.5806 26.7211 86.1421C32.4747 88.7037 38.7024 90.0273 45.0004 90.0273C51.2985 90.0273 57.5262 88.7037 63.2798 86.1421C69.0333 83.5806 74.1842 79.8384 78.3985 75.1582C78.4754 75.078 78.5473 74.993 78.6137 74.9039ZM3.96217 46.9853H21.5221C21.6303 53.7975 22.6167 60.5672 24.4569 67.127C20.6357 68.1059 16.9299 69.4897 13.4024 71.2551C7.69225 64.4116 4.37698 55.8884 3.96217 46.9853ZM13.4024 18.8026C16.9299 20.568 20.6357 21.9519 24.4569 22.9307C22.6167 29.4906 21.6303 36.2603 21.5221 43.0724H3.91325C4.34191 34.1635 7.6746 25.6398 13.4024 18.8026ZM86.0876 43.0724H68.4788C68.3706 36.2603 67.3842 29.4906 65.544 22.9307C69.3652 21.9519 73.071 20.568 76.5984 18.8026C82.3263 25.6398 85.659 34.1635 86.0876 43.0724ZM43.0439 21.5514C38.5239 21.4688 34.0197 20.9909 29.583 20.1232C32.8112 11.3877 37.6439 5.34224 43.0439 4.15858V21.5514ZM28.3699 23.8307C33.2021 24.8158 38.1134 25.3626 43.0439 25.4644V43.0724H25.4351C25.5689 36.5579 26.5556 30.089 28.3699 23.8307ZM43.0439 46.9853V64.5934C38.1143 64.6855 33.203 65.2224 28.3699 66.1977C26.5581 59.9489 25.5715 53.49 25.4351 46.9853H43.0439ZM43.0439 68.5063V85.8992C37.6439 84.7155 32.8112 78.6701 29.583 69.9639C34.0188 69.0863 38.523 68.5986 43.0439 68.5063ZM46.957 68.5063C51.477 68.5889 55.9812 69.0668 60.4179 69.9345C57.1896 78.6407 52.357 84.6862 46.957 85.8698V68.5063ZM61.631 66.1977C56.7979 65.2224 51.8866 64.6855 46.957 64.5934V46.9853H64.5658C64.432 53.4999 63.4453 59.9688 61.631 66.227V66.1977ZM46.957 43.0724V25.4644C51.8866 25.3722 56.7979 24.8353 61.631 23.8601C63.4428 30.1088 64.4294 36.5677 64.5658 43.0724H46.957ZM46.957 21.5514V4.15858C52.357 5.34224 57.1896 11.3877 60.4179 20.0939C55.9821 20.9715 51.4779 21.4592 46.957 21.5514ZM64.331 19.2233C62.6693 14.1828 59.9888 9.53781 56.4559 5.57701C63.0098 7.48748 68.9844 11.0008 73.8397 15.7995C70.7853 17.2308 67.6013 18.3675 64.331 19.1939V19.2233ZM25.6699 19.2233C22.3996 18.3968 19.2155 17.2602 16.1612 15.8288C21.0133 11.0195 26.9881 7.49593 33.5449 5.57701C30.0156 9.52918 27.3352 14.1638 25.6699 19.1939V19.2233ZM25.6699 70.8932C27.3352 75.9233 30.0156 80.5579 33.5449 84.5101C26.9881 82.5912 21.0133 79.0676 16.1612 74.2583C19.2155 72.8269 22.3996 71.6903 25.6699 70.8638V70.8932ZM64.331 70.8932C67.6013 71.7196 70.7853 72.8563 73.8397 74.2876C68.9812 79.0757 63.0069 82.5787 56.4559 84.4807C59.9853 80.5286 62.6656 75.8939 64.331 70.8638V70.8932ZM65.544 67.127C67.3842 60.5672 68.3706 53.7975 68.4788 46.9853H86.0876C85.659 55.8942 82.3263 64.418 76.5984 71.2551C73.071 69.4897 69.3652 68.1059 65.544 67.127Z" fill="url(#paint0_linear)"/>
<defs>
<linearGradient id="paint0_linear" x1="45.0007" y1="0.0310059" x2="45.0007" y2="90.0273" gradientUnits="userSpaceOnUse">
<stop stop-color="#50D5B7"/>
<stop offset="1" stop-color="#28C76F"/>
</linearGradient>
</defs>
</svg>
