<svg width="91" height="90" viewBox="0 0 91 90" fill="none" xmlns="http://www.w3.org/2000/svg">
<path d="M78.6136 74.8759C85.9363 66.6661 89.9888 56.0529 90.0014 45.0519C90.014 34.0508 85.9859 23.4283 78.6821 15.2017C78.5978 15.0825 78.5029 14.9711 78.3984 14.8691C74.1851 10.189 69.035 6.44681 63.2823 3.88526C57.5295 1.3237 51.3026 0 45.0053 0C38.708 0 32.4811 1.3237 26.7284 3.88526C20.9756 6.44681 15.8255 10.189 11.6122 14.8691C11.5021 14.9685 11.4036 15.0801 11.3187 15.2017C4.02707 23.415 0 34.0167 0 44.9997C0 55.9827 4.02707 66.5844 11.3187 74.7977C11.403 74.9169 11.498 75.0283 11.6024 75.1303C15.8166 79.8106 20.9676 83.553 26.7211 86.1146C32.4747 88.6763 38.7024 90 45.0004 90C51.2985 90 57.5262 88.6763 63.2798 86.1146C69.0333 83.553 74.1842 79.8106 78.3984 75.1303C78.4754 75.05 78.5472 74.9651 78.6136 74.8759ZM3.96217 46.9562H21.522C21.6303 53.7687 22.6167 60.5387 24.4568 67.0987C20.6357 68.0776 16.9299 69.4616 13.4024 71.227C7.69225 64.3832 4.37698 55.8597 3.96217 46.9562ZM13.4024 18.7724C16.9299 20.5378 20.6357 21.9218 24.4568 22.9007C22.6167 29.4607 21.6303 36.2308 21.522 43.0432H3.91325C4.34191 34.1339 7.6746 25.6098 13.4024 18.7724ZM86.0876 43.0432H68.4788C68.3706 36.2308 67.3842 29.4607 65.544 22.9007C69.3652 21.9218 73.071 20.5378 76.5984 18.7724C82.3263 25.6098 85.659 34.1339 86.0876 43.0432ZM43.0439 21.5213C38.5238 21.4387 34.0197 20.9608 29.583 20.093C32.8112 11.3571 37.6439 5.31145 43.0439 4.12774V21.5213ZM28.3699 23.8007C33.2021 24.7858 38.1134 25.3326 43.0439 25.4344V43.0432H25.4351C25.5689 36.5284 26.5556 30.0592 28.3699 23.8007ZM43.0439 46.9562V64.565C38.1143 64.6571 33.203 65.1941 28.3699 66.1694C26.5581 59.9204 25.5715 53.4612 25.4351 46.9562H43.0439ZM43.0439 68.4781V85.8717C37.6439 84.688 32.8112 78.6423 29.583 69.9357C34.0188 69.0581 38.523 68.5704 43.0439 68.4781ZM46.957 68.4781C51.477 68.5607 55.9812 69.0386 60.4179 69.9064C57.1896 78.6129 52.357 84.6586 46.957 85.8423V68.4781ZM61.631 66.1694C56.7979 65.1941 51.8866 64.6571 46.957 64.565V46.9562H64.5658C64.4319 53.471 63.4453 59.9402 61.631 66.1987V66.1694ZM46.957 43.0432V25.4344C51.8866 25.3423 56.7979 24.8053 61.631 23.83C63.4427 30.0791 64.4294 36.5382 64.5658 43.0432H46.957ZM46.957 21.5213V4.12774C52.357 5.31145 57.1896 11.3571 60.4179 20.0637C55.982 20.9413 51.4779 21.429 46.957 21.5213ZM64.331 19.193C62.6693 14.1523 59.9887 9.50719 56.4559 5.54623C63.0098 7.45677 68.9844 10.9702 73.8397 15.7691C70.7853 17.2005 67.6013 18.3372 64.331 19.1637V19.193ZM25.6699 19.193C22.3995 18.3666 19.2155 17.2299 16.1611 15.7985C21.0133 10.9889 26.9881 7.46522 33.5449 5.54623C30.0156 9.49856 27.3352 14.1334 25.6699 19.1637V19.193ZM25.6699 70.8651C27.3352 75.8954 30.0156 80.5302 33.5449 84.4825C26.9881 82.5635 21.0133 79.0398 16.1611 74.2303C19.2155 72.7989 22.3995 71.6622 25.6699 70.8357V70.8651ZM64.331 70.8651C67.6013 71.6915 70.7853 72.8282 73.8397 74.2596C68.9811 79.0479 63.0069 82.5511 56.4559 84.4532C59.9853 80.5008 62.6656 75.866 64.331 70.8357V70.8651ZM65.544 67.0987C67.3842 60.5387 68.3706 53.7687 68.4788 46.9562H86.0876C85.659 55.8655 82.3263 64.3896 76.5984 71.227C73.071 69.4616 69.3652 68.0776 65.544 67.0987Z" fill="#50D5B7"/>
</svg>
