<svg width="18" height="18" viewBox="0 0 18 18" fill="none" xmlns="http://www.w3.org/2000/svg">
<path d="M9 7.30294L2.04853 0.351472C1.5799 -0.117157 0.820101 -0.117157 0.351472 0.351472C-0.117157 0.820101 -0.117157 1.5799 0.351472 2.04853L7.30294 9L0.351472 15.9515C-0.117157 16.4201 -0.117157 17.1799 0.351472 17.6485C0.820101 18.1172 1.5799 18.1172 2.04853 17.6485L9 10.6971L15.9515 17.6485C16.4201 18.1172 17.1799 18.1172 17.6485 17.6485C18.1172 17.1799 18.1172 16.4201 17.6485 15.9515L10.6971 9L17.6485 2.04853C18.1172 1.5799 18.1172 0.820101 17.6485 0.351472C17.1799 -0.117157 16.4201 -0.117157 15.9515 0.351472L9 7.30294Z" fill="#CFCFCF"/>
</svg>
