<svg width="25" height="30" viewBox="0 0 25 30" fill="none" xmlns="http://www.w3.org/2000/svg">
<path d="M12.1875 21.5625C11.9475 21.5625 11.7075 21.4706 11.5247 21.2878L7.77468 17.5378C7.40812 17.1712 7.40812 16.5787 7.77468 16.2122C8.14124 15.8456 8.73374 15.8456 9.1003 16.2122L12.1875 19.2994L15.2747 16.2122C15.6412 15.8456 16.2337 15.8456 16.6003 16.2122C16.9669 16.5787 16.9669 17.1712 16.6003 17.5378L12.8503 21.2878C12.6675 21.4706 12.4275 21.5625 12.1875 21.5625Z" fill="white"/>
<path d="M12.1875 21.5625C11.67 21.5625 11.25 21.1434 11.25 20.625V11.25C11.25 10.7325 11.67 10.3125 12.1875 10.3125C12.705 10.3125 13.125 10.7325 13.125 11.25V20.625C13.125 21.1434 12.705 21.5625 12.1875 21.5625Z" fill="white"/>
<path d="M17.8125 25.3125H6.5625C6.045 25.3125 5.625 24.8934 5.625 24.375C5.625 23.8566 6.045 23.4375 6.5625 23.4375H17.8125C18.3309 23.4375 18.75 23.8566 18.75 24.375C18.75 24.8934 18.3309 25.3125 17.8125 25.3125Z" fill="white"/>
<path d="M21.9703 30H2.4075C1.08 30 0 28.9472 0 27.6534V8.39438C0 7.57969 0.330938 6.78188 0.906563 6.20531L6.20438 0.9075C6.78938 0.321562 7.5675 0 8.39438 0H21.9694C23.2959 0 24.375 1.05187 24.375 2.34469V27.6553C24.375 28.9481 23.2969 30 21.9703 30ZM8.39438 1.875C8.06813 1.875 7.76156 2.00156 7.53094 2.23219L2.23219 7.53094C2.00531 7.75781 1.875 8.07281 1.875 8.39438V27.6534C1.875 27.9131 2.11406 28.125 2.4075 28.125H21.9694C22.2619 28.125 22.5 27.9141 22.5 27.6553V2.34469C22.5 2.08594 22.2619 1.875 21.9694 1.875H8.39438Z" fill="white"/>
<path d="M7.03125 9.375H3.75C3.2325 9.375 2.8125 8.955 2.8125 8.4375C2.8125 7.92 3.2325 7.5 3.75 7.5H7.03125C7.29 7.5 7.5 7.29 7.5 7.03125V3.75C7.5 3.2325 7.92 2.8125 8.4375 2.8125C8.955 2.8125 9.375 3.2325 9.375 3.75V7.03125C9.375 8.32312 8.32313 9.375 7.03125 9.375Z" fill="white"/>
</svg>
