<svg width="36" height="41" viewBox="0 0 36 41" fill="none" xmlns="http://www.w3.org/2000/svg">
<path d="M23.4866 1.0001C23.3115 1.00919 23.1399 1.05268 22.9816 1.1281C22.8233 1.20351 22.6814 1.30937 22.564 1.43962C22.4466 1.56987 22.356 1.72197 22.2974 1.88723C22.2388 2.05249 22.2134 2.22767 22.2225 2.40277C22.2316 2.57787 22.2751 2.74946 22.3506 2.90774C22.426 3.06602 22.5319 3.20789 22.6622 3.32524C22.7925 3.4426 22.9446 3.53314 23.1099 3.5917C23.2751 3.65026 23.4503 3.67569 23.6254 3.66654H32.9583V38.3303H23.6254C23.4488 38.3278 23.2734 38.3605 23.1094 38.4263C22.9455 38.4922 22.7962 38.59 22.6704 38.7141C22.5446 38.8381 22.4447 38.9859 22.3765 39.1489C22.3083 39.3119 22.2732 39.4869 22.2732 39.6635C22.2732 39.8402 22.3083 40.0152 22.3765 40.1782C22.4447 40.3411 22.5446 40.489 22.6704 40.613C22.7962 40.7371 22.9455 40.8349 23.1094 40.9007C23.2734 40.9666 23.4488 40.9993 23.6254 40.9968H34.2916C34.6452 40.9967 34.9843 40.8563 35.2343 40.6062C35.4844 40.3562 35.6248 40.0171 35.6249 39.6635V2.33332C35.6248 1.97974 35.4844 1.64065 35.2343 1.39063C34.9843 1.14061 34.6452 1.00014 34.2916 1.0001H23.6254C23.5792 0.997688 23.5328 0.997688 23.4866 1.0001ZM14.6675 9.87436C14.404 9.88679 14.15 9.97714 13.9378 10.134C13.7256 10.2908 13.5647 10.5071 13.4755 10.7554C13.3862 11.0037 13.3727 11.2729 13.4366 11.529C13.5004 11.785 13.6388 12.0163 13.8342 12.1936L21.9727 19.6652H1.40428C1.35803 19.663 1.31165 19.663 1.2654 19.6652C0.567213 19.7014 -0.034797 20.3697 0.00156627 21.0679C0.0379294 21.766 0.706108 22.3681 1.40428 22.3317H21.9727L13.8342 29.7894C13.6955 29.9051 13.5818 30.0478 13.4999 30.2088C13.418 30.3699 13.3697 30.5459 13.3579 30.7261C13.3461 30.9064 13.3711 31.0872 13.4313 31.2575C13.4915 31.4279 13.5857 31.5842 13.7081 31.717C13.8306 31.8498 13.9788 31.9564 14.1437 32.0302C14.3086 32.104 14.4867 32.1435 14.6674 32.1464C14.848 32.1492 15.0274 32.1154 15.1945 32.0468C15.3616 31.9782 15.5131 31.8764 15.6397 31.7475L26.3059 21.9706C26.4409 21.8457 26.5487 21.6943 26.6224 21.5258C26.6961 21.3573 26.7341 21.1754 26.7341 20.9915C26.7341 20.8076 26.6961 20.6257 26.6224 20.4572C26.5487 20.2887 26.4409 20.1372 26.3059 20.0124L15.6397 10.2354C15.51 10.1134 15.3571 10.0185 15.1902 9.95652C15.0232 9.8945 14.8455 9.86656 14.6675 9.87436Z" fill="url(#paint0_linear)"/>
<defs>
<linearGradient id="paint0_linear" x1="17.8124" y1="0.998291" x2="17.8124" y2="40.9969" gradientUnits="userSpaceOnUse">
<stop stop-color="#50D5B7"/>
<stop offset="1" stop-color="#28C76F"/>
</linearGradient>
</defs>
</svg>
