<svg width="363" height="384" viewBox="0 0 363 384" fill="none" xmlns="http://www.w3.org/2000/svg">
<circle cx="191.5" cy="171.5" r="171.5" fill="#ADDAF9"/>
<g filter="url(#filter0_d)">
<rect x="44" y="67" width="205" height="276" fill="white"/>
<rect x="60.8358" y="92" width="118.841" height="14" rx="7" fill="#9CCCED"/>
<rect x="60.8358" y="176" width="87.1498" height="10" rx="5" fill="#9CCCED"/>
<rect x="60.8358" y="156" width="101.014" height="10" rx="5" fill="#9CCCED"/>
<rect x="59.8455" y="196" width="123.792" height="10" rx="5" fill="#9CCCED"/>
<rect x="59.8455" y="216" width="148.551" height="10" rx="5" fill="#9CCCED"/>
<rect x="58.855" y="288" width="69.3237" height="4" rx="2" fill="#9CCCED"/>
<rect x="166.802" y="288" width="43.5749" height="4" rx="2" fill="#9CCCED"/>
<path d="M15 94L44 66V343H248L222 369H15V94Z" fill="#E3E3E3"/>
</g>
<path d="M213.292 83.0057C211.999 83.0386 210.7 83.2123 209.423 83.5339C199.93 85.9246 194.154 95.6335 196.536 105.161C198.918 114.689 208.578 120.486 218.071 118.095C227.565 115.704 233.34 106.01 230.958 96.4818C230.931 96.2911 230.865 96.1082 230.763 95.945C230.661 95.7818 230.526 95.642 230.367 95.5346C230.207 95.4273 230.027 95.3549 229.838 95.3221C229.649 95.2893 229.455 95.2968 229.269 95.3443C229.083 95.3917 228.91 95.4779 228.759 95.5973C228.608 95.7167 228.485 95.8666 228.396 96.0373C228.307 96.2079 228.255 96.3954 228.243 96.5876C228.231 96.7798 228.259 96.9724 228.327 97.1528C230.349 105.244 225.465 113.41 217.403 115.44C209.341 117.47 201.191 112.581 199.168 104.49C197.145 96.3993 202.03 88.2193 210.092 86.1892C214.416 85.1001 218.992 85.9934 222.594 88.6303C222.736 88.759 222.903 88.8564 223.085 88.9163C223.266 88.9761 223.458 88.9971 223.649 88.9777C223.839 88.9584 224.023 88.8991 224.189 88.8039C224.355 88.7087 224.499 88.5796 224.612 88.4249C224.725 88.2703 224.804 88.0935 224.845 87.9061C224.886 87.7187 224.887 87.5247 224.848 87.3369C224.81 87.149 224.732 86.9714 224.621 86.8155C224.509 86.6596 224.367 86.5289 224.202 86.4319C221.01 84.0954 217.17 82.9065 213.292 83.0057ZM233.717 83.8908C233.364 83.9124 233.032 84.071 232.793 84.3333C227.951 89.4179 220.12 98.071 215.027 103.463L208.285 97.4954C208.151 97.3754 207.994 97.2832 207.824 97.224C207.654 97.1648 207.474 97.1398 207.294 97.1504C207.115 97.161 206.939 97.207 206.777 97.2858C206.615 97.3646 206.47 97.4746 206.351 97.6096C206.231 97.7446 206.139 97.9019 206.08 98.0725C206.021 98.2431 205.997 98.4237 206.007 98.604C206.018 98.7843 206.063 98.9607 206.142 99.1232C206.22 99.2857 206.33 99.4311 206.465 99.5511L214.202 106.403C214.466 106.639 214.81 106.763 215.163 106.75C215.515 106.737 215.849 106.587 216.094 106.332C221.181 100.99 229.728 91.5112 234.756 86.232C234.952 86.0361 235.085 85.7849 235.136 85.5116C235.187 85.2383 235.154 84.9559 235.041 84.7019C234.929 84.4479 234.742 84.2343 234.505 84.0894C234.269 83.9445 233.994 83.8753 233.717 83.8908Z" fill="#3298DC"/>
<path d="M174 302.555C174 303.107 173.552 303.555 173 303.555C172.448 303.555 172 303.107 172 302.555C172 297.159 172.989 290.377 174.635 283.782C170.549 285.571 166.269 286.893 162.156 287.542C161.61 287.629 161.098 287.256 161.012 286.711C160.926 286.165 161.299 285.653 161.844 285.567C166.276 284.867 170.929 283.345 175.293 281.286C176.137 278.24 177.116 275.278 178.196 272.56C182.463 261.819 187.583 256.408 192.555 259.723C197.574 263.069 195.306 269.285 188.152 275.438C184.981 278.165 181.124 280.658 176.983 282.692C175.132 289.617 174 296.9 174 302.555ZM186.848 273.921C193.145 268.506 194.901 263.691 191.445 261.387C188.131 259.177 183.88 263.669 180.054 273.299C179.209 275.426 178.427 277.71 177.724 280.067C181.095 278.277 184.222 276.18 186.848 273.921ZM188.669 287.298C188.258 287.667 187.626 287.634 187.257 287.224C186.887 286.813 186.921 286.181 187.331 285.811L196.095 277.924C196.916 277.185 198.181 277.251 198.92 278.072C199.138 278.315 199.294 278.608 199.373 278.925L200.628 283.943L206.638 279.978C207.542 279.382 208.755 279.613 209.377 280.499L211.437 283.436L225.787 280.3C226.326 280.182 226.859 280.524 226.977 281.064C227.095 281.603 226.753 282.136 226.213 282.254L211.864 285.39C211.076 285.562 210.262 285.244 209.799 284.584L207.739 281.647L201.729 285.612C201.54 285.736 201.332 285.828 201.113 285.883C200.041 286.151 198.955 285.499 198.687 284.428L197.433 279.41L188.669 287.298Z" fill="#3298DC"/>
<defs>
<filter id="filter0_d" x="0" y="61" width="254" height="323" filterUnits="userSpaceOnUse" color-interpolation-filters="sRGB">
<feFlood flood-opacity="0" result="BackgroundImageFix"/>
<feColorMatrix in="SourceAlpha" type="matrix" values="0 0 0 0 0 0 0 0 0 0 0 0 0 0 0 0 0 0 127 0"/>
<feOffset dx="-5" dy="5"/>
<feGaussianBlur stdDeviation="5"/>
<feColorMatrix type="matrix" values="0 0 0 0 0 0 0 0 0 0 0 0 0 0 0 0 0 0 0.2 0"/>
<feBlend mode="normal" in2="BackgroundImageFix" result="effect1_dropShadow"/>
<feBlend mode="normal" in="SourceGraphic" in2="effect1_dropShadow" result="shape"/>
</filter>
</defs>
</svg>
